<svg width="390" height="298" viewBox="0 0 390 298" fill="none" xmlns="http://www.w3.org/2000/svg">
<path d="M376.598 0.113281H13.4024C6.00082 0.113281 0 6.1148 0 13.519V283.633C0 291.037 6.00082 297.038 13.4024 297.038H376.597C383.999 297.038 389.999 291.036 389.999 283.633V13.519C390 6.1148 383.999 0.113281 376.598 0.113281Z" fill="#198038"/>
<path d="M390 283.63V13.5217C390 6.11219 383.997 0.115234 376.597 0.115234H355.018C362.418 0.115234 368.421 6.11219 368.421 13.5217V283.629C368.421 291.039 362.418 297.036 355.018 297.036H376.597C383.997 297.036 390 291.039 390 283.63Z" fill="#39B54A"/>
<path d="M390 58.167V13.5217C390 6.11219 383.997 0.115234 376.597 0.115234H13.4032C6.00311 0.115996 0 6.11295 0 13.5217V58.167H390Z" fill="#E3F4FF"/>
<path d="M390 58.167V13.5217C390 6.11219 383.997 0.115234 376.597 0.115234H355.018C362.418 0.115234 368.421 6.11219 368.421 13.5217V58.167H390Z" fill="#BDDFF4"/>
<path d="M75.4155 34.9722H75.3416C72.0913 34.9722 69.4565 32.3367 69.4565 29.0857C69.4565 25.8346 72.0913 23.1992 75.3416 23.1992C78.5918 23.1992 81.2639 25.8346 81.2639 29.0857C81.2639 32.3367 78.6657 34.9722 75.4155 34.9722Z" fill="#54DDAC"/>
<path d="M56.1324 35.0282C52.9103 35.0282 50.2824 32.4331 50.2489 29.2026C50.2146 25.9516 52.822 23.2887 56.0722 23.2544C59.2874 23.211 62.0212 25.8282 62.0555 29.0792C62.0898 32.331 59.519 34.9931 56.2687 35.0274L56.1948 35.0282C56.1743 35.0282 56.153 35.0282 56.1324 35.0282Z" fill="#FDC142"/>
<path d="M36.9244 35.0843C33.7023 35.0843 31.0736 32.4892 31.0408 29.2587C31.0073 26.0069 33.6147 23.3441 36.8649 23.3105C36.8855 23.3105 36.9068 23.3105 36.9266 23.3105C40.1495 23.3105 42.814 25.9056 42.8475 29.1361C42.881 32.3871 40.311 35.05 37.0599 35.0835L36.9861 35.0843C36.9663 35.0843 36.9449 35.0843 36.9244 35.0843Z" fill="#FC3E81"/>
<path d="M131.659 35.0825H111.235C107.985 35.0825 105.35 32.4471 105.35 29.196C105.35 25.945 107.985 23.3096 111.235 23.3096H131.659C134.909 23.3096 137.544 25.945 137.544 29.196C137.544 32.4471 134.909 35.0825 131.659 35.0825Z" fill="#BDDFF4"/>
<path d="M126.658 141.588H121.552V134.633C121.552 128.835 116.846 124.135 111.04 124.135C105.235 124.135 100.528 128.835 100.528 134.633V141.588H75.998L93.662 111.722C96.6144 106.73 94.9557 100.292 89.9568 97.3438C84.958 94.3945 78.5123 96.0517 75.5599 101.043L48.529 146.747C46.6098 149.992 46.5801 154.017 48.4506 157.29C50.3218 160.563 53.806 162.584 57.5805 162.584H100.529V194.223C100.529 200.021 105.235 204.722 111.041 204.722C116.847 204.722 121.553 200.021 121.553 194.223V162.584H126.659C132.464 162.584 137.171 157.884 137.171 152.086C137.17 146.288 132.464 141.588 126.658 141.588Z" fill="#FD9E28"/>
<path d="M332.419 141.588H327.314V134.633C327.314 128.835 322.607 124.135 316.802 124.135C310.996 124.135 306.29 128.835 306.29 134.633V141.588H281.759L299.423 111.722C302.375 106.73 300.716 100.292 295.718 97.3438C290.719 94.3945 284.273 96.0517 281.321 101.043L254.29 146.747C252.371 149.992 252.341 154.017 254.211 157.29C256.083 160.563 259.567 162.584 263.341 162.584H306.29V194.223C306.29 200.021 310.996 204.722 316.802 204.722C322.607 204.722 327.314 200.021 327.314 194.223V162.584H332.419C338.225 162.584 342.931 157.884 342.931 152.086C342.931 146.288 338.225 141.588 332.419 141.588Z" fill="#FD9E28"/>
<path fill-rule="evenodd" clip-rule="evenodd" d="M181.549 204.724H208.451C221.76 204.724 232.588 193.91 232.588 180.618V119.991C232.588 106.7 221.76 95.8857 208.451 95.8857H181.549C168.24 95.8857 157.412 106.699 157.412 119.991V180.618C157.412 193.91 168.24 204.724 181.549 204.724ZM180.368 124.143C180.368 121.204 182.763 118.813 185.705 118.813H204.294C207.237 118.813 209.632 121.204 209.632 124.143V176.466C209.632 179.406 207.237 181.796 204.294 181.796H185.705C182.763 181.796 180.368 179.405 180.368 176.466V124.143Z" fill="#FD9E28"/>
<path d="M283.273 272.577C280.01 272.577 277.328 269.932 277.328 266.669C277.328 263.405 279.935 260.761 283.198 260.761H283.273C286.536 260.761 289.181 263.406 289.181 266.669C289.181 269.932 286.536 272.577 283.273 272.577Z" fill="#E3F4FF"/>
<path d="M302.84 272.633C299.577 272.633 296.894 269.988 296.894 266.725C296.894 263.462 299.502 260.816 302.765 260.816H302.84C306.103 260.816 308.749 263.462 308.749 266.725C308.749 269.988 306.103 272.633 302.84 272.633Z" fill="#E3F4FF"/>
<path d="M322.409 272.694C322.389 272.694 322.368 272.694 322.347 272.694C319.084 272.66 316.429 269.987 316.462 266.724C316.496 263.482 319.097 260.876 322.332 260.876C322.353 260.876 322.373 260.876 322.394 260.876L322.469 260.877C325.732 260.91 328.35 263.582 328.316 266.846C328.283 270.088 325.643 272.694 322.409 272.694Z" fill="#E3F4FF"/>
<path d="M69.8372 248.314H50.2699C47.0069 248.314 44.3618 245.692 44.3618 242.458C44.3618 239.224 47.0069 236.602 50.2699 236.602H69.8372C73.1002 236.602 75.7453 239.224 75.7453 242.458C75.7453 245.692 73.1002 248.314 69.8372 248.314Z" fill="#E3F4FF"/>
<path d="M89.4045 272.641H50.2699C47.0069 272.641 44.3618 270.019 44.3618 266.784C44.3618 263.55 47.0069 260.928 50.2699 260.928H89.4045C92.6675 260.928 95.3126 263.55 95.3126 266.784C95.3126 270.019 92.6675 272.641 89.4045 272.641Z" fill="#E3F4FF"/>
</svg>
