<svg width="98" height="94" viewBox="0 0 98 94" fill="none" xmlns="http://www.w3.org/2000/svg">
<path d="M73.5985 6.92853C73.9728 6.68488 74.2951 6.3694 74.5467 6.00035C74.7982 5.63131 74.9741 5.21603 75.0641 4.77855C75.1541 4.34107 75.1565 3.89009 75.071 3.4517C74.9855 3.01332 74.8139 2.59624 74.5662 2.22462C74.3184 1.85299 73.9994 1.5342 73.6276 1.28669C73.2559 1.03918 72.8387 0.867881 72.4002 0.782697C71.9618 0.697513 71.5108 0.70014 71.0734 0.790427C70.636 0.880714 70.2208 1.05687 69.8519 1.30869L56.7255 10.0627C54.3345 9.10937 51.7838 8.62032 49.2098 8.62168C46.553 8.62168 44.0178 9.13053 41.6942 10.0627L28.5677 1.30869C27.8224 0.823567 26.9158 0.651981 26.0448 0.831175C25.1738 1.01037 24.4085 1.52588 23.9153 2.26581C23.422 3.00574 23.2404 3.91037 23.41 4.78333C23.5796 5.6563 24.0867 6.42714 24.8212 6.92853L35.4484 14.0119C32.2507 16.9684 30.0906 20.8765 29.2882 25.157C31.2922 24.6437 33.3527 24.3835 35.4214 24.3825H63.0027C65.1252 24.3885 67.1681 24.6466 69.1314 25.157C68.329 20.8765 66.1689 16.9684 62.9712 14.0119L73.5985 6.92853ZM0.801758 58.1555C0.801758 57.2598 1.15758 56.4008 1.79095 55.7674C2.42432 55.134 3.28335 54.7782 4.17906 54.7782H17.6883V48.8702C17.6883 45.1056 18.8591 41.6157 20.8585 38.7473L9.67732 34.2712C8.86421 33.9255 8.21896 33.2749 7.87998 32.4589C7.54099 31.643 7.53526 30.7267 7.86402 29.9066C8.19277 29.0864 8.82983 28.4278 9.63855 28.0719C10.4473 27.7161 11.3633 27.6913 12.19 28.0029L26.3117 33.6498C29.0616 31.9956 32.2123 31.1266 35.4214 31.1371H62.9982C66.3305 31.1371 69.4466 32.0557 72.108 33.6498L86.2296 28.0029C86.6432 27.8271 87.0877 27.7355 87.5371 27.7337C87.9866 27.7318 88.4318 27.8197 88.8469 27.9921C89.2619 28.1645 89.6383 28.418 89.9541 28.7378C90.2699 29.0576 90.5187 29.4372 90.6859 29.8543C90.8532 30.2715 90.9355 30.7178 90.928 31.1672C90.9205 31.6165 90.8234 32.0599 90.6424 32.4712C90.4614 32.8826 90.2001 33.2537 89.8738 33.5628C89.5475 33.8718 89.1629 34.1127 88.7423 34.2712L77.5612 38.7473C79.6361 41.7141 80.7433 45.2498 80.7314 48.8702V54.7782H94.2406C95.1363 54.7782 95.9953 55.134 96.6287 55.7674C97.2621 56.4008 97.6179 57.2598 97.6179 58.1555C97.6179 59.0512 97.2621 59.9103 96.6287 60.5436C95.9953 61.177 95.1363 61.5328 94.2406 61.5328H80.7314V62.6586C80.7344 67.7884 79.4854 72.8415 77.0929 77.3792L88.7423 82.0398C89.5742 82.373 90.2395 83.023 90.5921 83.8468C90.9447 84.6706 90.9556 85.6008 90.6224 86.4326C90.2892 87.2644 89.6392 87.9298 88.8154 88.2824C87.9916 88.6349 87.0614 88.6458 86.2296 88.3126L73.2067 83.0981C67.9803 89.2348 60.6014 93.1361 52.5871 94V62.6586C52.5871 61.7629 52.2313 60.9038 51.5979 60.2705C50.9646 59.6371 50.1055 59.2813 49.2098 59.2813C48.3141 59.2813 47.4551 59.6371 46.8217 60.2705C46.1883 60.9038 45.8325 61.7629 45.8325 62.6586V94C37.8189 93.1373 30.4401 89.2376 25.2129 83.1026L12.1945 88.3081C11.7827 88.4731 11.3423 88.5554 10.8987 88.5502C10.455 88.545 10.0167 88.4524 9.6088 88.2779C9.20089 88.1033 8.83137 87.8501 8.52132 87.5327C8.21127 87.2153 7.96678 86.84 7.80179 86.4281C7.6368 86.0162 7.55455 85.5759 7.55975 85.1322C7.56494 84.6885 7.65746 84.2502 7.83204 83.8423C8.00662 83.4344 8.25983 83.0649 8.57721 82.7549C8.8946 82.4448 9.26995 82.2003 9.68182 82.0353L21.3358 77.3746C18.9408 72.8391 17.6887 67.7876 17.6883 62.6586V61.5328H4.17906C3.28335 61.5328 2.42432 61.177 1.79095 60.5436C1.15758 59.9103 0.801758 59.0512 0.801758 58.1555Z" fill="#198038"/>
</svg>
