<svg width="92" height="107" viewBox="0 0 92 107" fill="none" xmlns="http://www.w3.org/2000/svg">
<path fill-rule="evenodd" clip-rule="evenodd" d="M49.1621 0.554017L49.0996 0.563749L48.6957 0.733998L48.582 0.753454L48.5024 0.733998L48.0986 0.563749C48.0379 0.547535 47.9924 0.555638 47.9621 0.588067L47.9393 0.636711L47.8426 2.71862L47.8711 2.8159L47.9279 2.87914L48.5194 3.2391L48.6047 3.25855L48.673 3.2391L49.2645 2.87914L49.3327 2.80131L49.3555 2.71862L49.2588 0.641572C49.2436 0.589687 49.2114 0.560503 49.1621 0.554017ZM50.6693 0.00435912L50.5954 0.0140823L49.5432 0.466462L49.4863 0.515105L49.4692 0.568611L49.5716 2.66025L49.6001 2.71862L49.6456 2.75267L50.7887 3.20505C50.8608 3.22126 50.9158 3.20829 50.9537 3.16613L50.9764 3.09803L50.7831 0.11137C50.7641 0.0529987 50.7262 0.0173305 50.6693 0.00435912ZM46.6027 0.0140823C46.5777 0.00109154 46.5477 -0.00311933 46.5191 0.00231799C46.4905 0.00775532 46.4655 0.0224238 46.4492 0.0432705L46.4151 0.11137L46.2217 3.09803C46.2255 3.15641 46.2577 3.19532 46.3184 3.21478L46.4037 3.20505L47.5469 2.75267L47.6037 2.71376L47.6265 2.66025L47.7232 0.568611L47.7061 0.510244L47.6492 0.4616L46.6027 0.0140823Z" fill="#198038"/>
<path fill-rule="evenodd" clip-rule="evenodd" d="M45.79 9.24609V40.8639C45.7901 42.6777 46.5801 44.4264 48.006 45.7691C49.4318 47.1118 51.3913 47.9521 53.5023 48.1262L54.3213 48.1603H91.29V96.803C91.2909 99.2574 90.2071 101.621 88.2558 103.421C86.3045 105.221 83.6299 106.323 80.7682 106.507L79.915 106.532H11.665C8.79526 106.532 6.03119 105.605 3.92692 103.936C1.82265 102.268 0.533711 99.9801 0.318478 97.5326L0.29004 96.803V18.9746C0.289131 16.5202 1.37298 14.1563 3.3243 12.3566C5.27563 10.5569 7.95022 9.4545 10.8119 9.27042L11.665 9.24609H45.79ZM45.79 55.4567C44.397 55.4568 43.0524 55.8942 42.0114 56.686C40.9704 57.4777 40.3053 58.5686 40.1424 59.7518L40.1025 60.3209V67.6174H31.5713C30.1217 67.6187 28.7274 68.0935 27.6733 68.9446C26.6192 69.7957 25.9848 70.9589 25.8999 72.1966C25.8149 73.4342 26.2857 74.6529 27.2162 75.6037C28.1466 76.5544 29.4664 77.1654 30.9059 77.3119L31.5713 77.3459H40.1025V84.6423C40.1041 85.8821 40.6592 87.0746 41.6544 87.9761C42.6495 88.8776 44.0096 89.4202 45.4567 89.4928C46.9039 89.5655 48.3288 89.1628 49.4405 88.3671C50.5521 87.5713 51.2665 86.4426 51.4377 85.2114L51.4775 84.6423V77.3459H60.0088C61.4584 77.3445 62.8527 76.8698 63.9068 76.0187C64.9609 75.1676 65.5953 74.0044 65.6802 72.7667C65.7652 71.529 65.2943 70.3103 64.3639 69.3596C63.4335 68.4088 62.1137 67.7978 60.6742 67.6514L60.0088 67.6174H51.4775V60.3209C51.4775 59.0309 50.8783 57.7936 49.8117 56.8814C48.7451 55.9692 47.2985 55.4567 45.79 55.4567ZM57.165 9.45526C59.0043 9.78919 60.718 10.5078 62.153 11.5469L62.8525 12.0966L87.9572 33.5675C89.2898 34.7062 90.2709 36.1103 90.8123 37.6534L91.0398 38.4317H57.165V9.45526Z" fill="#198038"/>
</svg>
