<svg width="96" height="95" viewBox="0 0 96 95" fill="none" xmlns="http://www.w3.org/2000/svg">
<path fill-rule="evenodd" clip-rule="evenodd" d="M0.709961 47.5C0.709961 21.2658 21.9757 0 48.21 0C74.4442 0 95.71 21.2658 95.71 47.5C95.71 73.7342 74.4442 95 48.21 95C21.9757 95 0.709961 73.7342 0.709961 47.5ZM43.498 33.1645C44.533 32.2051 45.8293 31.5741 47.223 31.3515C48.6166 31.129 50.045 31.3247 51.3274 31.914C52.6097 32.5034 53.6885 33.4598 54.4273 34.6623C55.166 35.8649 55.5315 37.2595 55.4775 38.6698V38.7837C55.4642 39.6947 55.269 40.5939 54.9034 41.4284C54.5379 42.263 54.0092 43.0161 53.3486 43.6435C52.688 44.2709 51.9087 44.7601 51.0564 45.0822C50.2042 45.4043 49.2962 45.5529 48.3857 45.5192C47.7477 45.4956 47.1115 45.6009 46.5151 45.8287C45.9186 46.0565 45.3743 46.4022 44.9145 46.8452C44.4547 47.2881 44.0889 47.8192 43.839 48.4067C43.5891 48.9942 43.4602 49.626 43.46 50.2645V57C43.46 58.2598 43.9604 59.468 44.8512 60.3588C45.742 61.2496 46.9502 61.75 48.21 61.75C49.4697 61.75 50.6779 61.2496 51.5687 60.3588C52.4595 59.468 52.96 58.2598 52.96 57V54.4398C56.3643 53.5054 59.3744 51.4937 61.5399 48.7057C63.7054 45.9177 64.9098 42.5034 64.9727 38.9738C65.1333 34.5645 63.5358 30.2721 60.5316 27.0407C57.5274 23.8093 53.3626 21.9037 48.9533 21.7431C44.5441 21.5825 40.2517 23.18 37.0203 26.1842C33.7889 29.1884 31.8833 33.3533 31.7227 37.7625C31.6748 39.0223 32.1294 40.2495 32.9863 41.1741C33.8433 42.0988 35.0324 42.6451 36.2922 42.693C37.552 42.7409 38.7792 42.2863 39.7038 41.4294C40.6285 40.5724 41.1748 39.3833 41.2227 38.1235C41.2892 36.233 42.1062 34.447 43.498 33.1645ZM48.1625 66.538C46.9027 66.538 45.6945 67.0385 44.8037 67.9292C43.9129 68.82 43.4125 70.0282 43.4125 71.288C43.4125 72.5478 43.9129 73.756 44.8037 74.6468C45.6945 75.5376 46.9027 76.038 48.1625 76.038H48.21C49.4697 76.038 50.6779 75.5376 51.5687 74.6468C52.4595 73.756 52.96 72.5478 52.96 71.288C52.96 70.0282 52.4595 68.82 51.5687 67.9292C50.6779 67.0385 49.4697 66.538 48.21 66.538H48.1625Z" fill="#198038"/>
</svg>
