<svg width="96" height="81" viewBox="0 0 96 81" fill="none" xmlns="http://www.w3.org/2000/svg">
<path d="M88.2458 1.10979L3.5553 33.9372C0.147199 35.466 -1.00551 38.5274 2.73156 40.1888L24.4583 47.1292L76.9909 14.4952C79.8592 12.4465 82.7957 12.9928 80.2688 15.2465L35.1505 56.3092L33.7332 73.6869C35.0459 76.37 37.4496 76.3826 38.9828 75.0489L51.4654 63.1766L72.844 79.2681C77.8094 82.2228 80.5112 80.316 81.5795 74.9003L95.6019 8.15918C97.0578 1.49291 94.5751 -1.44432 88.2458 1.10979Z" fill="#198038"/>
<path d="M88.3394 1.3418C91.4888 0.0708889 93.5513 0.221563 94.6655 1.35254C95.2285 1.92408 95.5855 2.77613 95.7085 3.91309C95.8315 5.05021 95.7183 6.45499 95.3579 8.10547L95.3569 8.10742L81.3345 74.8486V74.8516C80.8034 77.5437 79.88 79.2759 78.5532 80.0039C77.2441 80.7221 75.4353 80.5165 72.9839 79.0605L51.6157 62.9766L51.4468 62.8496L51.2935 62.9951L38.814 74.8633C38.0953 75.4865 37.1882 75.7838 36.3198 75.6279C35.4696 75.4752 34.6131 74.8802 33.9868 73.6348L35.3911 56.4268L80.437 15.4316L80.436 15.4307C80.7609 15.1408 81.0069 14.8725 81.1772 14.625C81.3465 14.379 81.4516 14.1406 81.4751 13.916C81.4995 13.6825 81.4336 13.4711 81.2808 13.3076C81.1348 13.1515 80.929 13.0596 80.7046 13.0127C80.2575 12.9193 79.6533 12.9853 78.9937 13.1934C78.3291 13.403 77.5849 13.7632 76.8491 14.2881L24.4253 46.8555L2.82861 39.957C1.92527 39.5546 1.34168 39.0795 1.01221 38.5869C0.685827 38.0989 0.598993 37.5817 0.708496 37.0654C0.931367 36.0153 1.9837 34.9158 3.65283 34.166L88.3364 1.34277L88.3394 1.3418Z" stroke="black" stroke-opacity="0.3" stroke-width="0.5"/>
</svg>
