<svg width="86" height="93" viewBox="0 0 86 93" fill="none" xmlns="http://www.w3.org/2000/svg">
<path d="M84.4248 84.1848L56.2594 39.9513L83.8338 9.62039C84.8013 8.52972 85.3 7.10164 85.2217 5.64576C85.1434 4.18988 84.4944 2.82354 83.4154 1.84297C82.3364 0.862407 80.9144 0.346646 79.4577 0.407508C78.001 0.468371 76.6269 1.10095 75.6335 2.16811L50.1138 30.2596L32.7113 2.92072C32.2112 2.13438 31.5208 1.48689 30.704 1.03815C29.8873 0.589421 28.9705 0.353945 28.0386 0.353516H5.87569C4.88316 0.353973 3.90897 0.621035 3.05495 1.12678C2.20093 1.63253 1.49845 2.3584 1.02093 3.22851C0.543401 4.09863 0.308372 5.08104 0.340403 6.07306C0.372434 7.06507 0.67035 8.03028 1.20301 8.86777L29.3684 53.1013L1.77555 83.4322C1.27596 83.9688 0.887857 84.5993 0.633729 85.2871C0.379602 85.9748 0.264506 86.7062 0.295113 87.4388C0.32572 88.1713 0.501422 88.8905 0.812034 89.5547C1.12265 90.2189 1.56199 90.8148 2.10461 91.3079C2.64722 91.801 3.28231 92.1815 3.97307 92.4274C4.66383 92.6733 5.39651 92.7796 6.12867 92.7402C6.86082 92.7008 7.57787 92.5165 8.23826 92.1979C8.89865 91.8794 9.48926 91.4329 9.97583 90.8844L35.514 62.7929L52.9165 90.1318C53.4166 90.9182 54.107 91.5657 54.9238 92.0144C55.7405 92.4631 56.6573 92.6986 57.5892 92.699H79.7521C80.7446 92.6986 81.7188 92.4315 82.5729 91.9258C83.4269 91.42 84.1294 90.6941 84.6069 89.824C85.0844 88.9539 85.3194 87.9715 85.2874 86.9795C85.2554 85.9875 84.9575 85.0223 84.4248 84.1848ZM60.632 81.6176L15.9691 11.435H24.9958L69.6587 81.6176H60.632Z" fill="#198038"/>
<path d="M28.0383 0.603516C28.928 0.603926 29.8035 0.828525 30.5833 1.25684C31.3631 1.68529 32.0227 2.30391 32.5002 3.05469L49.9026 30.3936L50.0784 30.6699L50.2991 30.4277L75.8157 2.33789L75.8167 2.33887C76.7652 1.31989 78.0771 0.715365 79.468 0.657227C80.859 0.59911 82.217 1.092 83.2473 2.02832C84.2775 2.96463 84.8971 4.26909 84.9719 5.65918C85.0467 7.04837 84.5713 8.41098 83.6487 9.45215L56.0745 39.7832L55.9456 39.9248L56.0481 40.0859L84.2141 84.3193C84.7225 85.1189 85.0067 86.0403 85.0374 86.9873C85.0679 87.9346 84.8439 88.8733 84.3879 89.7041C83.932 90.5349 83.261 91.228 82.4456 91.7109C81.6301 92.1938 80.6999 92.4487 79.7522 92.4492H57.5891C56.6993 92.4488 55.824 92.2234 55.0442 91.7949C54.2644 91.3665 53.6047 90.7488 53.1272 89.998L35.7249 62.6582L35.5491 62.3828L35.3293 62.625L9.79126 90.7158L9.78833 90.7188C9.32388 91.2422 8.7604 91.6686 8.13013 91.9727C7.49961 92.2768 6.8145 92.4526 6.11548 92.4902C5.41636 92.5278 4.71647 92.4262 4.05688 92.1914C3.39738 91.9566 2.79078 91.5938 2.27271 91.123C1.75465 90.6522 1.33492 90.0833 1.03833 89.4492C0.74179 88.8151 0.57444 88.1281 0.545166 87.4287C0.515943 86.7293 0.625804 86.0307 0.868408 85.374C1.11104 84.7174 1.48128 84.1149 1.95825 83.6025L1.96021 83.6006L29.553 53.2695L29.6819 53.1279L29.5793 52.9668L1.41431 8.7334C0.905758 7.93381 0.620747 7.01253 0.590088 6.06543C0.559502 5.11817 0.7845 4.17949 1.24048 3.34863C1.6964 2.51801 2.36663 1.82466 3.18188 1.3418C3.89553 0.919176 4.69749 0.670896 5.52173 0.615234L5.87622 0.603516H28.0383ZM15.7581 11.5693L60.4211 81.752L60.4944 81.8672H70.1145L69.8694 81.4834L25.2063 11.3008L25.1331 11.1846H15.5139L15.7581 11.5693Z" stroke="black" stroke-opacity="0.3" stroke-width="0.5"/>
</svg>
