<svg width="47" height="46" viewBox="0 0 47 46" fill="none" xmlns="http://www.w3.org/2000/svg">
<path opacity="0.21" d="M23.4092 0.0302734C23.6048 0.0302734 23.7997 0.0331627 23.9941 0.0380859C36.0507 0.343438 45.7679 10.0606 46.0732 22.1172C46.0782 22.3116 46.0811 22.5066 46.0811 22.7021C46.0811 22.8977 46.0782 23.0927 46.0732 23.2871C45.763 35.5381 35.7349 45.374 23.4092 45.374C23.2136 45.374 23.0186 45.3711 22.8242 45.3662C10.7676 45.0609 1.05047 35.3437 0.745117 23.2871C0.740194 23.0927 0.737305 22.8977 0.737305 22.7021C0.737305 22.5066 0.740194 22.3116 0.745117 22.1172C1.05539 9.86621 11.0834 0.0302734 23.4092 0.0302734Z" fill="#4AD991"/>
<path fill-rule="evenodd" clip-rule="evenodd" d="M36.9932 22.7021C36.9932 30.2042 30.9112 36.2861 23.4092 36.2861C15.9071 36.2861 9.8252 30.2042 9.8252 22.7021C9.8252 15.2001 15.9071 9.11816 23.4092 9.11816C30.9112 9.11816 36.9932 15.2001 36.9932 22.7021ZM11.0601 22.7021L15.3477 15.2927H17.8521L13.5645 22.7021L17.8521 30.1116H15.3477L11.0601 22.7021ZM25.2615 22.7021C25.2615 23.1934 25.0664 23.6646 24.719 24.012C24.3716 24.3594 23.9005 24.5545 23.4092 24.5545C22.9179 24.5545 22.4467 24.3594 22.0994 24.012C21.752 23.6646 21.5568 23.1934 21.5568 22.7021C21.5568 22.2109 21.752 21.7397 22.0994 21.3923C22.4467 21.0449 22.9179 20.8498 23.4092 20.8498C23.9005 20.8498 24.3716 21.0449 24.719 21.3923C25.0664 21.7397 25.2615 22.2109 25.2615 22.7021ZM31.4707 15.2927L35.7583 22.7021L31.4707 30.1116H28.9663L33.2539 22.7021L28.9663 15.2927H31.4707ZM15.9997 22.7021L18.8585 17.7625H21.3629L18.5041 22.7021L21.3617 27.6418H18.8598L15.9997 22.7021ZM28.3834 17.7625L31.2422 22.7021L28.3834 27.6418H25.879L28.7378 22.7021L25.879 17.7625H28.3834Z" fill="#39B54A"/>
</svg>
