<svg width="46" height="46" viewBox="0 0 46 46" fill="none" xmlns="http://www.w3.org/2000/svg">
<path opacity="0.21" d="M23.1035 0C23.2991 0 23.4941 0.00288922 23.6885 0.0078125C35.7451 0.313164 45.4622 10.0303 45.7676 22.0869C45.7725 22.2813 45.7754 22.4763 45.7754 22.6719C45.7754 22.8675 45.7725 23.0624 45.7676 23.2568C45.4573 35.5078 35.4293 45.3438 23.1035 45.3438C22.9079 45.3438 22.7129 45.3409 22.5186 45.3359C10.462 45.0306 0.744805 35.3134 0.439453 23.2568C0.43453 23.0624 0.431641 22.8675 0.431641 22.6719C0.431641 22.4763 0.43453 22.2813 0.439453 22.0869C0.749727 9.83594 10.7778 0 23.1035 0Z" fill="#FEC53D"/>
<path fill-rule="evenodd" clip-rule="evenodd" d="M34.2978 22.8725C34.2978 29.1657 29.1959 34.2675 22.9028 34.2675C16.6097 34.2675 11.5078 29.1657 11.5078 22.8725C11.5078 16.5794 16.6097 11.4775 22.9028 11.4775C29.1959 11.4775 34.2978 16.5794 34.2978 22.8725ZM12.5437 22.8725L16.1404 16.6571H18.2412L14.6445 22.8725L18.2412 29.088H16.1404L12.5437 22.8725ZM24.4567 22.8725C24.4567 23.2846 24.2929 23.6799 24.0015 23.9713C23.7101 24.2627 23.3149 24.4264 22.9028 24.4264C22.4907 24.4264 22.0955 24.2627 21.804 23.9713C21.5126 23.6799 21.3489 23.2846 21.3489 22.8725C21.3489 22.4604 21.5126 22.0652 21.804 21.7738C22.0955 21.4824 22.4907 21.3187 22.9028 21.3187C23.3149 21.3187 23.7101 21.4824 24.0015 21.7738C24.2929 22.0652 24.4567 22.4604 24.4567 22.8725ZM29.6652 16.6571L33.2619 22.8725L29.6652 29.088H27.5644L31.161 22.8725L27.5644 16.6571H29.6652ZM16.6873 22.8725L19.0855 18.7289H21.1863L18.7882 22.8725L21.1853 27.0161H19.0865L16.6873 22.8725ZM27.0754 18.7289L29.4736 22.8725L27.0754 27.0161H24.9746L27.3727 22.8725L24.9746 18.7289H27.0754Z" fill="#FEC53D"/>
</svg>
