<svg width="54" height="54" viewBox="0 0 54 54" fill="none" xmlns="http://www.w3.org/2000/svg">
<path opacity="0.21" d="M30.5117 0.688477C43.2142 0.688477 53.5116 10.986 53.5117 23.6885V30.2422C53.5116 42.9447 43.2142 53.2422 30.5117 53.2422H23.959C11.2565 53.2422 0.959069 42.9447 0.958984 30.2422V23.6885C0.959104 10.986 11.2565 0.688477 23.959 0.688477H30.5117Z" fill="#B2D703" fill-opacity="0.5"/>
<path d="M27.2355 22.619C33.6365 22.619 38.8255 21.0623 38.8255 19.142C38.8255 17.2217 33.6365 15.665 27.2355 15.665C20.8345 15.665 15.6455 17.2217 15.6455 19.142C15.6455 21.0623 20.8345 22.619 27.2355 22.619Z" stroke="#B2D703" stroke-opacity="0.5" stroke-width="2" stroke-linecap="round" stroke-linejoin="round"/>
<path d="M19.5687 21.75C17.1638 22.3874 15.6455 23.3193 15.6455 24.3577C15.6455 26.2782 20.8343 27.8347 27.2355 27.8347C33.6366 27.8347 38.8255 26.2782 38.8255 24.3577C38.8255 23.3193 37.3078 22.3874 34.9023 21.75C32.8589 22.2907 30.1747 22.6192 27.2355 22.6192C24.2963 22.6192 21.6126 22.2907 19.5687 21.75Z" stroke="#B2D703" stroke-opacity="0.5" stroke-width="2" stroke-linecap="round" stroke-linejoin="round"/>
<path d="M19.5687 26.9658C17.1638 27.6033 15.6455 28.5351 15.6455 29.5736C15.6455 31.494 20.8343 33.0506 27.2355 33.0506C33.6366 33.0506 38.8255 31.494 38.8255 29.5736C38.8255 28.5351 37.3078 27.6033 34.9023 26.9658C32.8589 27.5065 30.1747 27.8351 27.2355 27.8351C24.2963 27.8351 21.6126 27.5065 19.5687 26.9658Z" stroke="#B2D703" stroke-opacity="0.5" stroke-width="2" stroke-linecap="round" stroke-linejoin="round"/>
<path d="M19.5687 32.1807C17.1638 32.8181 15.6455 33.7499 15.6455 34.7884C15.6455 36.7089 20.8343 38.2654 27.2355 38.2654C33.6366 38.2654 38.8255 36.7089 38.8255 34.7884C38.8255 33.7499 37.3078 32.8181 34.9023 32.1807C32.8589 32.7219 30.1747 33.0499 27.2355 33.0499C24.2963 33.0499 21.6126 32.7219 19.5687 32.1807Z" stroke="#B2D703" stroke-opacity="0.5" stroke-width="2" stroke-linecap="round" stroke-linejoin="round"/>
</svg>
