<svg width="54" height="54" viewBox="0 0 54 54" fill="none" xmlns="http://www.w3.org/2000/svg">
<path opacity="0.21" d="M30.0273 0.852539C42.7296 0.852744 53.0271 11.1503 53.0273 23.8525V30.4062C53.0273 43.1087 42.7297 53.406 30.0273 53.4062H23.4736C10.7711 53.4062 0.473633 43.1088 0.473633 30.4062V23.8525C0.473879 11.1502 10.7712 0.852539 23.4736 0.852539H30.0273Z" fill="#F7A600" fill-opacity="0.5"/>
<path d="M31.6752 28.9842C31.6764 28.0427 31.371 27.1264 30.8051 26.3739L32.9886 24.2069C33.4153 24.3852 33.8723 24.48 34.3348 24.486C34.753 24.4991 35.1698 24.4297 35.5613 24.2816C35.9527 24.1336 36.3112 23.9099 36.6161 23.6232C36.921 23.3366 37.1665 22.9927 37.3384 22.6111C37.5103 22.2296 37.6054 21.8179 37.6181 21.3996C37.6181 20.5288 37.2722 19.6936 36.6565 19.0779C36.0407 18.4621 35.2056 18.1162 34.3348 18.1162C33.4639 18.1162 32.6288 18.4621 32.0131 19.0779C31.3973 19.6936 31.0514 20.5288 31.0514 21.3996C31.0535 21.9074 31.1894 22.4057 31.4454 22.8443L29.2619 25.0277C28.4944 24.5981 27.6297 24.3721 26.7502 24.371C25.6642 24.3561 24.6037 24.7005 23.7337 25.3507C22.8638 26.001 22.2332 26.9205 21.94 27.9663H20.8072C20.5593 27.3532 20.132 26.8293 19.5813 26.4632C19.0306 26.097 18.3821 25.9057 17.7209 25.9142C16.8788 25.8876 16.0606 26.1958 15.4452 26.7711C14.8298 27.3465 14.4675 28.1423 14.4375 28.9842C14.4502 29.4025 14.5453 29.8142 14.7172 30.1957C14.8892 30.5773 15.1346 30.9212 15.4395 31.2078C15.7445 31.4945 16.1029 31.7182 16.4944 31.8662C16.8858 32.0143 17.3026 32.0837 17.7209 32.0706C18.3821 32.0791 19.0306 31.8878 19.5813 31.5216C20.132 31.1555 20.5593 30.6315 20.8072 30.0184H21.94C22.2332 31.0642 22.8638 31.9838 23.7337 32.634C24.6037 33.2843 25.6642 33.6287 26.7502 33.6137C27.3776 33.6334 28.0028 33.5293 28.5899 33.3073C29.1771 33.0852 29.7148 32.7496 30.1721 32.3197C30.6295 31.8897 30.9977 31.3738 31.2556 30.8015C31.5135 30.2292 31.6561 29.6116 31.6752 28.9842ZM34.3348 20.3817C34.6328 20.3543 34.9296 20.4459 35.1604 20.6367C35.3911 20.8274 35.5369 21.1017 35.566 21.3996C35.5182 21.6916 35.3681 21.9572 35.1425 22.1487C34.917 22.3403 34.6307 22.4455 34.3348 22.4455C34.0388 22.4455 33.7525 22.3403 33.527 22.1487C33.3014 21.9572 33.1513 21.6916 33.1035 21.3996C33.1367 21.1034 33.2836 20.8316 33.5133 20.6417C33.7431 20.4518 34.0376 20.3586 34.3348 20.3817ZM17.7209 30.0184C17.4211 30.0413 17.1244 29.9459 16.8942 29.7525C16.664 29.5592 16.5188 29.2834 16.4896 28.9842C16.5228 28.688 16.6697 28.4162 16.8995 28.2263C17.1292 28.0364 17.4237 27.9432 17.7209 27.9663C18.018 27.9432 18.3126 28.0364 18.5423 28.2263C18.772 28.4162 18.919 28.688 18.9521 28.9842C18.923 29.2834 18.7777 29.5592 18.5475 29.7525C18.3174 29.9459 18.0206 30.0413 17.7209 30.0184ZM26.7502 31.5616C26.0282 31.5975 25.3213 31.3468 24.7833 30.8641C24.2452 30.3814 23.9196 29.7058 23.8772 28.9842C23.9195 28.264 24.2457 27.5899 24.7843 27.1098C25.3229 26.6297 26.0298 26.3828 26.7502 26.4232C27.4694 26.3871 28.174 26.6356 28.7116 27.1148C29.2491 27.594 29.5766 28.2655 29.6231 28.9842C29.5766 29.7042 29.2497 30.3773 28.7126 30.8592C28.1755 31.341 27.471 31.5932 26.7502 31.5616Z" fill="#F7A600" fill-opacity="0.5"/>
<path d="M17.7209 23.0407C18.1843 23.0437 18.6431 22.9486 19.0671 22.7616L21.9564 25.7003C22.3741 25.1409 22.885 24.6578 23.4668 24.272L20.6102 21.399C20.8663 20.9605 21.0022 20.4622 21.0043 19.9544C20.9743 19.1124 20.6119 18.3167 19.9966 17.7413C19.3812 17.1659 18.5629 16.8578 17.7209 16.8844C16.8788 16.8578 16.0606 17.1659 15.4452 17.7413C14.8298 18.3167 14.4675 19.1124 14.4375 19.9544C14.4502 20.3727 14.5453 20.7844 14.7172 21.1659C14.8892 21.5475 15.1346 21.8914 15.4395 22.178C15.7445 22.4646 16.1029 22.6884 16.4944 22.8364C16.8858 22.9844 17.3026 23.0539 17.7209 23.0407ZM17.7209 18.9365C18.018 18.9134 18.3126 19.0066 18.5423 19.1965C18.772 19.3864 18.919 19.6581 18.9521 19.9544C18.923 20.2535 18.7777 20.5294 18.5475 20.7227C18.3174 20.9161 18.0206 21.0115 17.7209 20.9886C17.4211 21.0115 17.1244 20.9161 16.8942 20.7227C16.664 20.5294 16.5188 20.2535 16.4896 19.9544C16.5228 19.6581 16.6697 19.3864 16.8995 19.1965C17.1292 19.0066 17.4237 18.9134 17.7209 18.9365ZM35.7794 34.943C35.316 34.94 34.8573 35.0351 34.4333 35.2221L31.5439 32.267C31.1171 32.8102 30.6007 33.2765 30.0171 33.646L32.8736 36.5026C32.6227 36.9424 32.4924 37.4408 32.4961 37.9473C32.4961 38.8181 32.842 39.6532 33.4577 40.2689C34.0735 40.8847 34.9086 41.2306 35.7794 41.2306C36.6502 41.2306 37.4854 40.8847 38.1011 40.2689C38.7169 39.6532 39.0628 38.8181 39.0628 37.9473C39.0161 37.1169 38.6465 36.3378 38.0329 35.7765C37.4194 35.2151 36.6106 34.9159 35.7794 34.943ZM35.7794 39.0472C35.4797 39.0701 35.1829 38.9746 34.9528 38.7813C34.7226 38.5879 34.5774 38.3121 34.5482 38.0129C34.596 37.7209 34.7461 37.4554 34.9717 37.2638C35.1972 37.0722 35.4835 36.967 35.7794 36.967C36.0754 36.967 36.3617 37.0722 36.5872 37.2638C36.8128 37.4554 36.9629 37.7209 37.0107 38.0129C36.9815 38.3121 36.8363 38.5879 36.6061 38.7813C36.3759 38.9746 36.0792 39.0701 35.7794 39.0472Z" fill="#F7A600" fill-opacity="0.5"/>
</svg>
