<svg width="46" height="46" viewBox="0 0 46 46" fill="none" xmlns="http://www.w3.org/2000/svg">
<path opacity="0.3" d="M22.7871 0.5C22.9807 0.5 23.1738 0.501957 23.3662 0.506836C35.2894 0.809106 44.8999 10.4196 45.2021 22.3428C45.207 22.5352 45.209 22.7283 45.209 22.9219C45.209 23.1155 45.207 23.3085 45.2021 23.501C44.895 35.6166 34.9768 45.3438 22.7871 45.3438C22.5935 45.3438 22.4004 45.3418 22.208 45.3369C10.2848 45.0346 0.674341 35.4242 0.37207 23.501C0.367192 23.3085 0.365234 23.1155 0.365234 22.9219C0.365234 22.7283 0.367192 22.5352 0.37207 22.3428C0.679219 10.2271 10.5975 0.5 22.7871 0.5Z" fill="#FF9066"/>
<path opacity="0.78" fill-rule="evenodd" clip-rule="evenodd" d="M21.7559 18.4118C21.7759 18.1513 21.9932 17.9502 22.2544 17.9502H22.3354C22.5923 17.9502 22.8074 18.1448 22.833 18.4004L23.2862 22.9328L26.5221 24.7819C26.6779 24.871 26.774 25.0366 26.774 25.2161V25.2678C26.774 25.5975 26.4606 25.8369 26.1425 25.7502L21.6918 24.5364C21.4604 24.4732 21.3064 24.2547 21.3248 24.0156L21.7559 18.4118Z" fill="#FF9066"/>
<path opacity="0.901274" d="M16.6396 12.0969C16.7351 11.6974 17.2457 11.5772 17.5098 11.8918L18.6924 13.302C19.9504 12.7663 21.3344 12.469 22.7881 12.469L23.3262 12.4827C28.8548 12.7627 33.2517 17.3337 33.252 22.9319C33.252 28.7107 28.5669 33.3958 22.7881 33.3958C17.0092 33.3958 12.3242 28.7107 12.3242 22.9319C12.3243 21.9506 12.4593 21.0005 12.7119 20.0999L14.6309 20.6389C14.4236 21.3779 14.3174 22.1469 14.3174 22.9319C14.3174 27.61 18.11 31.4026 22.7881 31.4026C27.4662 31.4026 31.2588 27.61 31.2588 22.9319C31.2586 18.4 27.6992 14.6996 23.2236 14.4729L22.7881 14.4622C21.8403 14.4622 20.9174 14.6179 20.0469 14.9153L21.2305 16.3264C21.495 16.6416 21.2867 17.1233 20.876 17.1467L16.0312 17.4211C15.6971 17.4399 15.4389 17.1315 15.5166 16.8059L16.6396 12.0969Z" fill="#FF9066"/>
</svg>
