<svg width="46" height="46" viewBox="0 0 46 46" fill="none" xmlns="http://www.w3.org/2000/svg">
<path opacity="0.21" d="M22.9619 0.0302734C23.1575 0.0302734 23.3525 0.0331627 23.5469 0.0380859C35.6035 0.343438 45.3206 10.0606 45.626 22.1172C45.6309 22.3116 45.6338 22.5066 45.6338 22.7021C45.6338 22.8977 45.6309 23.0927 45.626 23.2871C45.3157 35.5381 35.2877 45.374 22.9619 45.374C22.7663 45.374 22.5713 45.3711 22.377 45.3662C10.3204 45.0609 0.603203 35.3437 0.297852 23.2871C0.292928 23.0927 0.290039 22.8977 0.290039 22.7021C0.290039 22.5066 0.292928 22.3116 0.297852 22.1172C0.608126 9.86621 10.6362 0.0302734 22.9619 0.0302734Z" fill="#F8D7CB"/>
<path opacity="0.78" fill-rule="evenodd" clip-rule="evenodd" d="M21.9626 18.0251C21.9827 17.7646 22.1999 17.5635 22.4611 17.5635H22.5103C22.7672 17.5635 22.9823 17.7581 23.0078 18.0137L23.4452 22.3869L26.5696 24.1723C26.7254 24.2613 26.8216 24.427 26.8216 24.6064V24.6263C26.8216 24.956 26.5081 25.1955 26.19 25.1087L21.9144 23.9427C21.6831 23.8796 21.5291 23.6611 21.5475 23.4219L21.9626 18.0251Z" fill="#FF9066"/>
<path opacity="0.901274" d="M17.0039 11.9279C17.0995 11.5286 17.609 11.4082 17.873 11.7228L18.998 13.0636C20.2156 12.5452 21.555 12.257 22.9619 12.257C28.556 12.257 33.0915 16.7919 33.0918 22.3859C33.0918 27.9801 28.5561 32.5158 22.9619 32.5158C17.3678 32.5156 12.833 27.98 12.833 22.3859C12.8331 21.436 12.9635 20.5165 13.208 19.6447L15.0664 20.1662C14.8657 20.8816 14.7627 21.6259 14.7627 22.3859C14.7627 26.9144 18.4334 30.5859 22.9619 30.5861C27.4906 30.5861 31.1621 26.9145 31.1621 22.3859C31.1619 17.9989 27.7164 14.4169 23.3838 14.1974L22.9619 14.1867C22.0445 14.1867 21.1512 14.3373 20.3086 14.6252L21.4346 15.967C21.6989 16.2822 21.4899 16.764 21.0791 16.7873L16.4434 17.05C16.1091 17.0689 15.851 16.7604 15.9287 16.4347L17.0039 11.9279Z" fill="#FF9066"/>
</svg>
