<svg width="47" height="46" viewBox="0 0 47 46" fill="none" xmlns="http://www.w3.org/2000/svg">
<path opacity="0.21" d="M23.6035 0C23.7991 0 23.9941 0.00288922 24.1885 0.0078125C36.2451 0.313164 45.9622 10.0303 46.2676 22.0869C46.2725 22.2813 46.2754 22.4763 46.2754 22.6719C46.2754 22.8675 46.2725 23.0624 46.2676 23.2568C45.9573 35.5078 35.9293 45.3438 23.6035 45.3438C23.4079 45.3438 23.2129 45.3409 23.0186 45.3359C10.962 45.0306 1.2448 35.3134 0.939453 23.2568C0.93453 23.0624 0.931641 22.8675 0.931641 22.6719C0.931641 22.4763 0.93453 22.2813 0.939453 22.0869C1.24973 9.83594 11.2778 0 23.6035 0Z" fill="#4AD991"/>
<path d="M27.3056 12.4462L25.1178 21.0851H27.1373C27.6983 21.0851 27.9227 21.5338 27.5861 22.0948L20.4057 33.819C21.4448 34.1169 22.5204 34.2679 23.6014 34.2678H23.6032C29.8001 34.2631 34.8207 29.2387 34.8207 23.041C34.8207 18.1708 31.7195 14.0244 27.3832 12.4705L27.3047 12.4462H27.3056ZM22.0886 24.9557H20.0691C19.5082 24.9557 19.2838 24.507 19.6204 23.946L26.8007 12.2779C25.7617 11.98 24.686 11.829 23.6051 11.8291H23.6032C17.4064 11.8338 12.3857 16.8582 12.3857 23.0559C12.3857 27.9261 15.487 32.0726 19.8232 33.6264L19.9018 33.6507L22.0886 24.9557Z" fill="#4AD991"/>
</svg>
