<svg width="46" height="46" viewBox="0 0 46 46" fill="none" xmlns="http://www.w3.org/2000/svg">
<path opacity="0.21" d="M23.1035 0C23.2991 0 23.4941 0.00288922 23.6885 0.0078125C35.7451 0.313164 45.4622 10.0303 45.7676 22.0869C45.7725 22.2813 45.7754 22.4763 45.7754 22.6719C45.7754 22.8675 45.7725 23.0624 45.7676 23.2568C45.4573 35.5078 35.4293 45.3438 23.1035 45.3438C22.9079 45.3438 22.7129 45.3409 22.5186 45.3359C10.462 45.0306 0.744805 35.3134 0.439453 23.2568C0.43453 23.0624 0.431641 22.8675 0.431641 22.6719C0.431641 22.4763 0.43453 22.2813 0.439453 22.0869C0.749727 9.83594 10.7778 0 23.1035 0Z" fill="#8280FF"/>
<path fill-rule="evenodd" clip-rule="evenodd" d="M12.6113 15.6359V17.1171H11.13C10.5408 17.1171 9.97564 17.3512 9.55897 17.7679C9.14229 18.1846 8.9082 18.7497 8.9082 19.339V29.7076C8.9082 30.2969 9.14229 30.862 9.55897 31.2787C9.97564 31.6953 10.5408 31.9294 11.13 31.9294H31.3735C31.6653 31.9294 31.9542 31.872 32.2238 31.7603C32.4933 31.6486 32.7383 31.485 32.9446 31.2787C33.1509 31.0723 33.3146 30.8274 33.4262 30.5578C33.5379 30.2883 33.5954 29.9994 33.5954 29.7076V28.2264H35.0766C36.3011 28.2264 37.2984 27.229 37.2984 26.0045V15.6359C37.2984 14.4114 36.3011 13.4141 35.0766 13.4141H14.8331C13.6086 13.4141 12.6113 14.4114 12.6113 15.6359ZM15.08 15.8828V17.1171H31.3735C31.6653 17.1171 31.9542 17.1746 32.2238 17.2863C32.4933 17.3979 32.7383 17.5616 32.9446 17.7679C33.1509 17.9742 33.3146 18.2191 33.4262 18.4887C33.5379 18.7583 33.5954 19.0472 33.5954 19.339V25.7576H34.8297V15.8828H15.08ZM18.7831 24.5233C18.7831 23.8685 19.0432 23.2406 19.5061 22.7776C19.9691 22.3147 20.597 22.0546 21.2518 22.0546C21.9065 22.0546 22.5345 22.3147 22.9974 22.7776C23.4604 23.2406 23.7205 23.8685 23.7205 24.5233C23.7205 25.178 23.4604 25.806 22.9974 26.2689C22.5345 26.7319 21.9065 26.992 21.2518 26.992C20.597 26.992 19.9691 26.7319 19.5061 26.2689C19.0432 25.806 18.7831 25.178 18.7831 24.5233Z" fill="#8280FF"/>
</svg>
