<svg width="54" height="54" viewBox="0 0 54 54" fill="none" xmlns="http://www.w3.org/2000/svg">
<path opacity="0.21" d="M30.0928 0.793945C42.7952 0.794047 53.0927 11.0915 53.0928 23.7939V30.3477C53.0926 43.05 42.7951 53.3475 30.0928 53.3477H23.5391C10.8367 53.3476 0.539213 43.05 0.539062 30.3477V23.7939C0.539116 11.0915 10.8366 0.794047 23.5391 0.793945H30.0928Z" fill="#26A17B"/>
<path d="M15.2285 14.9102V20.704L21.0224 14.9102H15.2285ZM32.6101 14.9102L38.4039 20.704V14.9102H32.6101ZM38.4039 38.0856V32.2917L32.6101 38.0856H38.4039ZM15.2285 38.0856H21.0224L15.2285 32.2917V38.0856ZM36.9555 26.4979C36.9555 20.8923 32.4218 16.3586 26.8162 16.3586C21.2107 16.3586 16.677 20.8923 16.677 26.4979C16.677 32.1034 21.2107 36.6371 26.8162 36.6371C32.4218 36.6371 36.9555 32.1034 36.9555 26.4979ZM26.8162 33.7402C22.8185 33.7402 19.5739 30.4956 19.5739 26.4979C19.5739 22.5001 22.8185 19.2556 26.8162 19.2556C30.814 19.2556 34.0586 22.5001 34.0586 26.4979C34.0586 30.4956 30.814 33.7402 26.8162 33.7402Z" fill="#83AEDD" fill-opacity="0.5"/>
</svg>
