<svg width="53" height="54" viewBox="0 0 53 54" fill="none" xmlns="http://www.w3.org/2000/svg">
<path opacity="0.21" d="M29.9336 0.714844C42.636 0.715033 52.9336 11.0124 52.9336 23.7148V30.2676C52.9336 42.97 42.636 53.2674 29.9336 53.2676H23.3799C10.6773 53.2676 0.379883 42.9701 0.379883 30.2676V23.7148C0.379883 11.0123 10.6773 0.714859 23.3799 0.714844H29.9336Z" fill="#F8D7CB"/>
<path opacity="0.78" fill-rule="evenodd" clip-rule="evenodd" d="M25.5044 21.4978C25.5244 21.2373 25.7417 21.0361 26.0029 21.0361H26.2055C26.4624 21.0361 26.6774 21.2308 26.703 21.4864L27.217 26.6265L30.8783 28.7187C31.0341 28.8077 31.1303 28.9733 31.1303 29.1528V29.3261C31.1303 29.6557 30.8168 29.8952 30.4987 29.8084L25.3795 28.4123C25.1482 28.3492 24.9942 28.1307 25.0126 27.8916L25.5044 21.4978Z" fill="#FF9066" fill-opacity="0.5"/>
<path opacity="0.901274" d="M19.7876 14.3506C19.8831 13.9512 20.3927 13.8311 20.6567 14.1455L22.062 15.8203C23.4735 15.2193 25.0267 14.8857 26.6577 14.8857L26.9604 14.8896C33.3041 15.0504 38.397 20.2436 38.397 26.626C38.3968 33.1094 33.1411 38.3651 26.6577 38.3652C20.1742 38.3652 14.9177 33.1095 14.9175 26.626C14.9175 25.5249 15.0696 24.4588 15.353 23.4482L17.5054 24.0518C17.2727 24.8812 17.1538 25.7449 17.1538 26.626C17.154 31.8745 21.4092 36.1289 26.6577 36.1289C31.9061 36.1287 36.1604 31.8744 36.1606 26.626C36.1606 21.5412 32.1676 17.3891 27.146 17.1348L26.6577 17.1221C25.5942 17.1221 24.5583 17.2971 23.5815 17.6309L24.9878 19.3066C25.2523 19.6219 25.0442 20.1046 24.6333 20.1279L18.9946 20.4473C18.6606 20.466 18.4025 20.1575 18.48 19.832L19.7876 14.3506Z" fill="#FF9066" fill-opacity="0.5"/>
</svg>
