<svg width="46" height="46" viewBox="0 0 46 46" fill="none" xmlns="http://www.w3.org/2000/svg">
<path opacity="0.21" d="M23.1855 0.0302734C23.3811 0.0302734 23.5761 0.0331627 23.7705 0.0380859C35.8271 0.343438 45.5443 10.0606 45.8496 22.1172C45.8545 22.3116 45.8574 22.5066 45.8574 22.7021C45.8574 22.8977 45.8545 23.0927 45.8496 23.2871C45.5393 35.5381 35.5113 45.374 23.1855 45.374C22.99 45.374 22.795 45.3711 22.6006 45.3662C10.544 45.0609 0.826836 35.3437 0.521484 23.2871C0.516561 23.0927 0.513672 22.8977 0.513672 22.7021C0.513672 22.5066 0.516561 22.3116 0.521484 22.1172C0.831758 9.86621 10.8598 0.0302734 23.1855 0.0302734Z" fill="#CD3FD1"/>
<path d="M22.0995 21.4791L20.6109 19.9904L26.5655 14.0358C27.3874 13.213 27.3874 11.8804 26.5655 11.0585C25.7436 10.2357 24.4101 10.2357 23.5882 11.0585L17.6229 17.0131L16.1343 15.5245C15.8154 15.2541 15.3754 15.1766 14.9829 15.3229C14.5913 15.4683 14.3083 15.8143 14.2424 16.2271L12.8468 23.5463C12.7925 23.8749 12.9001 24.2102 13.1356 24.4467C13.3721 24.6822 13.7075 24.7898 14.036 24.7355L21.3445 23.3816V23.3806C21.771 23.3341 22.1364 23.0559 22.2943 22.6566C22.4533 22.2583 22.3777 21.8047 22.0995 21.4791Z" fill="#9333EA"/>
<path d="M32.2917 18.884L24.9832 20.2379V20.2389C24.5703 20.3039 24.2243 20.5868 24.0789 20.9794C23.9326 21.3709 24.0101 21.8109 24.2805 22.1307L25.7692 23.6194L19.8039 29.5837C18.982 30.4065 18.982 31.7391 19.8039 32.561C20.6258 33.3838 21.9593 33.3838 22.7812 32.561L28.7358 26.6064L30.2245 28.095C30.5433 28.3654 30.9843 28.443 31.3758 28.2966C31.7683 28.1512 32.0514 27.8052 32.1163 27.3924L33.5226 20.0732C33.5807 19.7359 33.4683 19.3909 33.2221 19.1525C32.976 18.915 32.627 18.8142 32.2917 18.884Z" fill="#9333EA"/>
</svg>
