<svg width="38" height="33" viewBox="0 0 38 33" fill="none" xmlns="http://www.w3.org/2000/svg">
<rect width="37.1191" height="33" rx="10" fill="#E3D9F8"/>
<path d="M31.035 17.1446C31.0371 19.4658 30.3542 21.7359 29.0719 23.6708C27.7896 25.6056 25.9648 27.119 23.8262 28.0214C21.6517 28.9601 19.2472 29.2312 16.9182 28.8003C14.5892 28.3694 12.4409 27.256 10.7461 25.6015C10.8804 25.4037 11.0294 25.2164 11.1919 25.0411C13.6627 22.5702 16.1335 20.0994 18.6426 17.6668C18.9907 17.3438 19.4418 17.1543 19.9162 17.1318C23.4187 17.1318 26.9212 17.1318 30.4236 17.1318C30.6275 17.1238 30.8316 17.1281 31.035 17.1446Z" fill="black"/>
<path d="M8.96262 23.4999C7.41951 21.163 6.75329 18.3554 7.08198 15.5743C7.41067 12.7933 8.71306 10.2183 10.7584 8.30553C12.6956 6.464 15.1918 5.32128 17.8516 5.05829C20.5115 4.79531 23.183 5.42708 25.4433 6.85359L23.6857 8.39468C21.9856 7.46471 20.0436 7.07159 18.1157 7.26711C16.1877 7.46264 14.3642 8.23763 12.8854 9.49C11.3091 10.7516 10.1712 12.4785 9.63383 14.4246C9.09641 16.3708 9.18689 18.4369 9.89237 20.3286C10.5801 22.1116 10.5801 22.1116 8.96262 23.4999Z" fill="black"/>
<path d="M27.696 10.1266C27.978 10.1282 28.2568 10.1862 28.5161 10.2971C28.7753 10.4081 29.0098 10.5698 29.2056 10.7728C29.4014 10.9757 29.5547 11.2158 29.6563 11.4788C29.758 11.7419 29.8059 12.0226 29.7974 12.3045C29.758 12.8452 29.5228 13.3529 29.136 13.7327C28.7492 14.1125 28.2372 14.3383 27.696 14.3678C27.1341 14.3678 26.595 14.1455 26.1965 13.7493C25.7979 13.3532 25.5724 12.8155 25.569 12.2536C25.562 11.9724 25.6122 11.6926 25.7167 11.4314C25.8211 11.1702 25.9775 10.9329 26.1764 10.734C26.3753 10.5351 26.6126 10.3787 26.8738 10.2743C27.135 10.1699 27.4147 10.1196 27.696 10.1266Z" fill="black"/>
</svg>
