<svg width="19" height="18" viewBox="0 0 19 18" fill="none" xmlns="http://www.w3.org/2000/svg">
<path d="M13.4316 9C13.4316 10.0609 13.0102 11.0783 12.2601 11.8284C11.5099 12.5786 10.4925 13 9.43164 13C8.37077 13 7.35336 12.5786 6.60321 11.8284C5.85307 11.0783 5.43164 10.0609 5.43164 9C5.43164 7.93913 5.85307 6.92172 6.60321 6.17157C7.35336 5.42143 8.37077 5 9.43164 5C10.4925 5 11.5099 5.42143 12.2601 6.17157C13.0102 6.92172 13.4316 7.93913 13.4316 9Z" fill="#202224"/>
<path fill-rule="evenodd" clip-rule="evenodd" d="M9.43164 16C10.3509 16 11.2611 15.8189 12.1104 15.4672C12.9597 15.1154 13.7314 14.5998 14.3814 13.9497C15.0314 13.2997 15.547 12.5281 15.8988 11.6788C16.2506 10.8295 16.4316 9.91925 16.4316 9C16.4316 8.08075 16.2506 7.17049 15.8988 6.32122C15.547 5.47194 15.0314 4.70026 14.3814 4.05025C13.7314 3.40024 12.9597 2.88463 12.1104 2.53284C11.2611 2.18106 10.3509 2 9.43164 2C7.57513 2 5.79465 2.7375 4.48189 4.05025C3.16914 5.36301 2.43164 7.14348 2.43164 9C2.43164 10.8565 3.16914 12.637 4.48189 13.9497C5.79465 15.2625 7.57513 16 9.43164 16ZM9.43164 18C10.6135 18 11.7839 17.7672 12.8758 17.3149C13.9677 16.8626 14.9599 16.1997 15.7956 15.364C16.6313 14.5282 17.2943 13.5361 17.7466 12.4442C18.1988 11.3522 18.4316 10.1819 18.4316 9C18.4316 7.8181 18.1988 6.64778 17.7466 5.55585C17.2943 4.46392 16.6313 3.47177 15.7956 2.63604C14.9599 1.80031 13.9677 1.13738 12.8758 0.685084C11.7839 0.232792 10.6135 -1.76116e-08 9.43164 0C7.04469 3.55683e-08 4.75551 0.948211 3.06768 2.63604C1.37985 4.32387 0.431641 6.61305 0.431641 9C0.431641 11.3869 1.37985 13.6761 3.06768 15.364C4.75551 17.0518 7.04469 18 9.43164 18Z" fill="#202224"/>
</svg>
