<svg width="18" height="16" viewBox="0 0 18 16" fill="none" xmlns="http://www.w3.org/2000/svg">
<path fill-rule="evenodd" clip-rule="evenodd" d="M6.68366 5.99984L8.51166 7.82784L7.09766 9.24284L3.56166 5.70684C3.37419 5.51931 3.26887 5.265 3.26887 4.99984C3.26887 4.73467 3.37419 4.48036 3.56166 4.29284L7.09766 0.756836L8.51166 2.17184L6.68366 3.99984H11.0977C12.689 3.99984 14.2151 4.63198 15.3403 5.7572C16.4655 6.88241 17.0977 8.40854 17.0977 9.99984C17.0977 11.5911 16.4655 13.1173 15.3403 14.2425C14.2151 15.3677 12.689 15.9998 11.0977 15.9998H0.0976562V13.9998H11.0977C12.1585 13.9998 13.1759 13.5784 13.9261 12.8283C14.6762 12.0781 15.0977 11.0607 15.0977 9.99984C15.0977 8.93897 14.6762 7.92155 13.9261 7.17141C13.1759 6.42126 12.1585 5.99984 11.0977 5.99984H6.68366Z" fill="#202224"/>
</svg>
