
<svg width="19" height="14" viewBox="0 0 19 14" fill="none" xmlns="http://www.w3.org/2000/svg">
<path d="M1.49609 5.3151V3.48177C1.49609 2.99554 1.68925 2.52923 2.03306 2.18541C2.37688 1.84159 2.8432 1.64844 3.32943 1.64844H5.16276M1.49609 5.3151C2.71801 5.3151 5.16276 4.58177 5.16276 1.64844M1.49609 5.3151V8.98177M5.16276 1.64844H14.3294M1.49609 8.98177V10.8151C1.49609 11.3013 1.68925 11.7676 2.03306 12.1115C2.37688 12.4553 2.8432 12.6484 3.32943 12.6484H5.16276M1.49609 8.98177C2.71801 8.98177 5.16276 9.7151 5.16276 12.6484M17.9961 5.3151V3.48177C17.9961 2.99554 17.8029 2.52923 17.4591 2.18541C17.1153 1.84159 16.649 1.64844 16.1628 1.64844H14.3294M17.9961 5.3151C16.7742 5.3151 14.3294 4.58177 14.3294 1.64844M17.9961 5.3151V8.98177M5.16276 12.6484H8.82943" stroke="black" stroke-width="2" stroke-linecap="round" stroke-linejoin="round"/>
<path d="M9.74642 8.9821C10.7589 8.9821 11.5798 8.16129 11.5798 7.14876C11.5798 6.13624 10.7589 5.31543 9.74642 5.31543C8.7339 5.31543 7.91309 6.13624 7.91309 7.14876C7.91309 8.16129 8.7339 8.9821 9.74642 8.9821Z" stroke="black" stroke-width="2" stroke-linecap="round" stroke-linejoin="round"/>
<path d="M12.4961 12.6484H17.9961" stroke="black" stroke-width="2" stroke-linecap="round" stroke-linejoin="round"/>

</svg>
