<<<<<<< HEAD
<<<<<<< HEAD
<<<<<<< HEAD
<<<<<<< HEAD
<<<<<<< HEAD
=======
>>>>>>> 86fbca6 (feat: refine dashboard and grant round pages, update sidebar icons, and add new dashboard-related asset)
=======
>>>>>>> fb8a298 (style: enhance past grant table responsiveness and spacing on large screens)
<svg width="24" height="24" viewBox="0 0 24 24" fill="none" xmlns="http://www.w3.org/2000/svg">
<path d="M8.4 21C6.88333 21 5.604 20.4793 4.562 19.438C3.52 18.3967 2.99933 17.1173 3 15.6C3 14.9667 3.10833 14.35 3.325 13.75C3.54167 13.15 3.85 12.6083 4.25 12.125L7.8 7.85L6.1 4.45C5.93333 4.11667 5.946 3.79167 6.138 3.475C6.33 3.15833 6.61733 3 7 3H17C17.3833 3 17.671 3.15833 17.863 3.475C18.055 3.79167 18.0673 4.11667 17.9 4.45L16.2 7.85L19.75 12.125C20.15 12.6083 20.4583 13.15 20.675 13.75C20.8917 14.35 21 14.9667 21 15.6C21 17.1167 20.475 18.396 19.425 19.438C18.375 20.48 17.1 21.0007 15.6 21H8.4ZM12 16C11.45 16 10.9793 15.8043 10.588 15.413C10.1967 15.0217 10.0007 14.5507 10 14C9.99933 13.4493 10.1953 12.9787 10.588 12.588C10.9807 12.1973 11.4513 12.0013 12 12C12.5487 11.9987 13.0197 12.1947 13.413 12.588C13.8063 12.9813 14.002 13.452 14 14C13.998 14.548 13.8023 15.019 13.413 15.413C13.0237 15.807 12.5527 16.0027 12 16ZM9.625 7H14.375L15.375 5H8.625L9.625 7ZM8.4 19H15.6C16.55 19 17.3543 18.671 18.013 18.013C18.6717 17.355 19.0007 16.5507 19 15.6C19 15.2 18.929 14.8127 18.787 14.438C18.645 14.0633 18.4493 13.7257 18.2 13.425L14.525 9H9.5L5.8 13.4C5.55 13.7 5.35433 14.0417 5.213 14.425C5.07167 14.8083 5.00067 15.2 5 15.6C5 16.55 5.32933 17.3543 5.988 18.013C6.64667 18.6717 7.45067 19.0007 8.4 19Z" fill="black"/>
=======
=======
>>>>>>> 223cd4a (feat: refine dashboard and grant round pages, update sidebar icons, and add new dashboard-related asset)
<svg width="19" height="14" viewBox="0 0 19 14" fill="none" xmlns="http://www.w3.org/2000/svg">
<path d="M1.49609 5.3151V3.48177C1.49609 2.99554 1.68925 2.52923 2.03306 2.18541C2.37688 1.84159 2.8432 1.64844 3.32943 1.64844H5.16276M1.49609 5.3151C2.71801 5.3151 5.16276 4.58177 5.16276 1.64844M1.49609 5.3151V8.98177M5.16276 1.64844H14.3294M1.49609 8.98177V10.8151C1.49609 11.3013 1.68925 11.7676 2.03306 12.1115C2.37688 12.4553 2.8432 12.6484 3.32943 12.6484H5.16276M1.49609 8.98177C2.71801 8.98177 5.16276 9.7151 5.16276 12.6484M17.9961 5.3151V3.48177C17.9961 2.99554 17.8029 2.52923 17.4591 2.18541C17.1153 1.84159 16.649 1.64844 16.1628 1.64844H14.3294M17.9961 5.3151C16.7742 5.3151 14.3294 4.58177 14.3294 1.64844M17.9961 5.3151V8.98177M5.16276 12.6484H8.82943" stroke="black" stroke-width="2" stroke-linecap="round" stroke-linejoin="round"/>
<path d="M9.74642 8.9821C10.7589 8.9821 11.5798 8.16129 11.5798 7.14876C11.5798 6.13624 10.7589 5.31543 9.74642 5.31543C8.7339 5.31543 7.91309 6.13624 7.91309 7.14876C7.91309 8.16129 8.7339 8.9821 9.74642 8.9821Z" stroke="black" stroke-width="2" stroke-linecap="round" stroke-linejoin="round"/>
<path d="M12.4961 12.6484H17.9961" stroke="black" stroke-width="2" stroke-linecap="round" stroke-linejoin="round"/>
<<<<<<< HEAD
<<<<<<< HEAD
>>>>>>> 223cd4a (feat: refine dashboard and grant round pages, update sidebar icons, and add new dashboard-related asset)
=======
<svg width="24" height="24" viewBox="0 0 24 24" fill="none" xmlns="http://www.w3.org/2000/svg">
<path d="M8.4 21C6.88333 21 5.604 20.4793 4.562 19.438C3.52 18.3967 2.99933 17.1173 3 15.6C3 14.9667 3.10833 14.35 3.325 13.75C3.54167 13.15 3.85 12.6083 4.25 12.125L7.8 7.85L6.1 4.45C5.93333 4.11667 5.946 3.79167 6.138 3.475C6.33 3.15833 6.61733 3 7 3H17C17.3833 3 17.671 3.15833 17.863 3.475C18.055 3.79167 18.0673 4.11667 17.9 4.45L16.2 7.85L19.75 12.125C20.15 12.6083 20.4583 13.15 20.675 13.75C20.8917 14.35 21 14.9667 21 15.6C21 17.1167 20.475 18.396 19.425 19.438C18.375 20.48 17.1 21.0007 15.6 21H8.4ZM12 16C11.45 16 10.9793 15.8043 10.588 15.413C10.1967 15.0217 10.0007 14.5507 10 14C9.99933 13.4493 10.1953 12.9787 10.588 12.588C10.9807 12.1973 11.4513 12.0013 12 12C12.5487 11.9987 13.0197 12.1947 13.413 12.588C13.8063 12.9813 14.002 13.452 14 14C13.998 14.548 13.8023 15.019 13.413 15.413C13.0237 15.807 12.5527 16.0027 12 16ZM9.625 7H14.375L15.375 5H8.625L9.625 7ZM8.4 19H15.6C16.55 19 17.3543 18.671 18.013 18.013C18.6717 17.355 19.0007 16.5507 19 15.6C19 15.2 18.929 14.8127 18.787 14.438C18.645 14.0633 18.4493 13.7257 18.2 13.425L14.525 9H9.5L5.8 13.4C5.55 13.7 5.35433 14.0417 5.213 14.425C5.07167 14.8083 5.00067 15.2 5 15.6C5 16.55 5.32933 17.3543 5.988 18.013C6.64667 18.6717 7.45067 19.0007 8.4 19Z" fill="black"/>
>>>>>>> ef0fc52 (style: enhance past grant table responsiveness and spacing on large screens)
=======
>>>>>>> 4ff6668 (feat: refine dashboard and grant round pages, update sidebar icons, and add new dashboard-related asset)
<<<<<<< HEAD
>>>>>>> 86fbca6 (feat: refine dashboard and grant round pages, update sidebar icons, and add new dashboard-related asset)
=======
=======
<svg width="24" height="24" viewBox="0 0 24 24" fill="none" xmlns="http://www.w3.org/2000/svg">
<path d="M8.4 21C6.88333 21 5.604 20.4793 4.562 19.438C3.52 18.3967 2.99933 17.1173 3 15.6C3 14.9667 3.10833 14.35 3.325 13.75C3.54167 13.15 3.85 12.6083 4.25 12.125L7.8 7.85L6.1 4.45C5.93333 4.11667 5.946 3.79167 6.138 3.475C6.33 3.15833 6.61733 3 7 3H17C17.3833 3 17.671 3.15833 17.863 3.475C18.055 3.79167 18.0673 4.11667 17.9 4.45L16.2 7.85L19.75 12.125C20.15 12.6083 20.4583 13.15 20.675 13.75C20.8917 14.35 21 14.9667 21 15.6C21 17.1167 20.475 18.396 19.425 19.438C18.375 20.48 17.1 21.0007 15.6 21H8.4ZM12 16C11.45 16 10.9793 15.8043 10.588 15.413C10.1967 15.0217 10.0007 14.5507 10 14C9.99933 13.4493 10.1953 12.9787 10.588 12.588C10.9807 12.1973 11.4513 12.0013 12 12C12.5487 11.9987 13.0197 12.1947 13.413 12.588C13.8063 12.9813 14.002 13.452 14 14C13.998 14.548 13.8023 15.019 13.413 15.413C13.0237 15.807 12.5527 16.0027 12 16ZM9.625 7H14.375L15.375 5H8.625L9.625 7ZM8.4 19H15.6C16.55 19 17.3543 18.671 18.013 18.013C18.6717 17.355 19.0007 16.5507 19 15.6C19 15.2 18.929 14.8127 18.787 14.438C18.645 14.0633 18.4493 13.7257 18.2 13.425L14.525 9H9.5L5.8 13.4C5.55 13.7 5.35433 14.0417 5.213 14.425C5.07167 14.8083 5.00067 15.2 5 15.6C5 16.55 5.32933 17.3543 5.988 18.013C6.64667 18.6717 7.45067 19.0007 8.4 19Z" fill="black"/>
>>>>>>> 6952965 (style: enhance past grant table responsiveness and spacing on large screens)
>>>>>>> fb8a298 (style: enhance past grant table responsiveness and spacing on large screens)
=======
>>>>>>> 223cd4a (feat: refine dashboard and grant round pages, update sidebar icons, and add new dashboard-related asset)
</svg>
