<svg width="20" height="20" viewBox="0 0 20 20" fill="none" xmlns="http://www.w3.org/2000/svg">
<path d="M2.5353 12.4324L5.73891 9.2288L8.40294 11.8928L11.3758 8.91993L9.6874 7.23148H14.3958V11.9399L12.7074 10.2515L8.40294 14.5559L5.73891 11.8928L3.40918 14.2226C4.46708 15.8148 6.09075 16.9454 7.95115 17.3851C9.81155 17.8248 11.7695 17.5408 13.4284 16.5906C15.0872 15.6405 16.3227 14.0952 16.8846 12.268C17.4466 10.4408 17.2928 8.4683 16.4546 6.75022C15.6163 5.03214 14.1563 3.69699 12.3703 3.01532C10.5843 2.33364 8.60596 2.35644 6.83615 3.07909C5.06634 3.80174 3.63745 5.17019 2.83902 6.90713C2.0406 8.64407 1.93236 10.6196 2.53624 12.4334M1.08887 13.9005L1.07945 13.8911L1.08322 13.8873C0.547333 12.6817 0.27078 11.3769 0.271486 10.0575C0.271486 4.85655 4.48741 0.640625 9.68834 0.640625C14.8893 0.640625 19.1052 4.85655 19.1052 10.0575C19.1052 15.2584 14.8893 19.4743 9.68834 19.4743C5.85568 19.4743 2.55978 17.186 1.08887 13.9005Z" fill="black"/>
</svg>
