<svg width="17" height="13" viewBox="0 0 17 13" fill="none" xmlns="http://www.w3.org/2000/svg">
<path d="M2.11914 0.75H14.6191C15.5851 0.75 16.3691 1.34628 16.3691 2.08098V11.588C16.3691 11.941 16.1848 12.2795 15.8566 12.5291C15.5284 12.7787 15.0833 12.9189 14.6191 12.9189H2.11914C1.65501 12.9189 1.20989 12.7787 0.881704 12.5291C0.553515 12.2795 0.369141 11.941 0.369141 11.588L0.369141 2.08098C0.369141 1.34628 1.15314 0.75 2.11914 0.75ZM1.86914 2.08098V11.588C1.86914 11.6929 1.98114 11.7781 2.11914 11.7781H14.6191C14.6854 11.7781 14.749 11.7581 14.7959 11.7224C14.8428 11.6868 14.8691 11.6384 14.8691 11.588V2.08098C14.8691 2.03055 14.8428 1.98219 14.7959 1.94653C14.749 1.91087 14.6854 1.89084 14.6191 1.89084H2.11914C2.05284 1.89084 1.98925 1.91087 1.94236 1.94653C1.89548 1.98219 1.86914 2.03055 1.86914 2.08098ZM12.1191 3.03168C12.3181 3.03168 12.5088 3.09177 12.6495 3.19875C12.7901 3.30572 12.8691 3.45081 12.8691 3.6021V9.30629C12.8691 9.45757 12.7901 9.60266 12.6495 9.70964C12.5088 9.81661 12.3181 9.87671 12.1191 9.87671C11.9202 9.87671 11.7295 9.81661 11.5888 9.70964C11.4482 9.60266 11.3691 9.45757 11.3691 9.30629V3.6021C11.3691 3.45081 11.4482 3.30572 11.5888 3.19875C11.7295 3.09177 11.9202 3.03168 12.1191 3.03168ZM3.86914 3.6021C3.86914 3.45081 3.94816 3.30572 4.08881 3.19875C4.22946 3.09177 4.42023 3.03168 4.61914 3.03168C4.81805 3.03168 5.00882 3.09177 5.14947 3.19875C5.29012 3.30572 5.36914 3.45081 5.36914 3.6021V7.78517C5.36914 7.93646 5.29012 8.08154 5.14947 8.18852C5.00882 8.29549 4.81805 8.35559 4.61914 8.35559C4.42023 8.35559 4.22946 8.29549 4.08881 8.18852C3.94816 8.08154 3.86914 7.93646 3.86914 7.78517V3.6021ZM8.36914 3.03168C8.56805 3.03168 8.75882 3.09177 8.89947 3.19875C9.04012 3.30572 9.11914 3.45081 9.11914 3.6021V6.26405C9.11914 6.41534 9.04012 6.56043 8.89947 6.6674C8.75882 6.77437 8.56805 6.83447 8.36914 6.83447C8.17023 6.83447 7.97946 6.77437 7.83881 6.6674C7.69816 6.56043 7.61914 6.41534 7.61914 6.26405V3.6021C7.61914 3.45081 7.69816 3.30572 7.83881 3.19875C7.97946 3.09177 8.17023 3.03168 8.36914 3.03168Z" fill="black"/>
</svg>
