<svg width="17" height="16" viewBox="0 0 17 16" fill="none" xmlns="http://www.w3.org/2000/svg">
<g clip-path="url(#clip0_785_1271)">
<path d="M8.43164 1C6.57513 1 4.79465 1.7375 3.48189 3.05025C2.16914 4.36301 1.43164 6.14348 1.43164 8C1.43164 9.85652 2.16914 11.637 3.48189 12.9497C4.79465 14.2625 6.57513 15 8.43164 15C10.2882 15 12.0686 14.2625 13.3814 12.9497C14.6941 11.637 15.4316 9.85652 15.4316 8C15.4316 6.14348 14.6941 4.36301 13.3814 3.05025C12.0686 1.7375 10.2882 1 8.43164 1ZM0.431641 8C0.431641 5.87827 1.2745 3.84344 2.77479 2.34315C4.27508 0.842855 6.30991 0 8.43164 0C10.5534 0 12.5882 0.842855 14.0885 2.34315C15.5888 3.84344 16.4316 5.87827 16.4316 8C16.4316 10.1217 15.5888 12.1566 14.0885 13.6569C12.5882 15.1571 10.5534 16 8.43164 16C6.30991 16 4.27508 15.1571 2.77479 13.6569C1.2745 12.1566 0.431641 10.1217 0.431641 8Z" fill="black"/>
<path d="M10.0845 5.49601C9.59401 5.17234 9.01922 4.99987 8.43153 5.00001C7.82153 5.00001 7.25253 5.18301 6.77853 5.49601L5.12553 2.99201C6.10582 2.34304 7.2559 1.99795 8.43153 2.00001C9.65353 2.00001 10.7895 2.36501 11.7375 2.99201L10.0845 5.49601ZM11.4265 7.82001C11.4521 8.24609 11.3865 8.67273 11.2341 9.07143C11.0817 9.47013 10.8459 9.83171 10.5425 10.132C10.317 10.3555 10.0575 10.5419 9.77353 10.684L11.1155 13.367C11.6855 13.081 12.2055 12.707 12.6535 12.264C13.26 11.6633 13.7314 10.9401 14.0361 10.1427C14.3408 9.34533 14.4719 8.4921 14.4205 7.64001L11.4265 7.82001ZM5.74753 13.368L7.08953 10.684C6.56369 10.4211 6.12668 10.0095 5.8328 9.50032C5.53892 8.99115 5.40113 8.40684 5.43653 7.82001L2.44253 7.64001C2.37172 8.81368 2.64731 9.98228 3.23507 11.0006C3.82283 12.019 4.69585 12.8422 5.74753 13.368ZM10.4315 8.00001C10.4315 8.53044 10.2208 9.03915 9.84575 9.41422C9.47067 9.7893 8.96197 10 8.43153 10C7.9011 10 7.39239 9.7893 7.01732 9.41422C6.64225 9.03915 6.43153 8.53044 6.43153 8.00001C6.43153 7.46958 6.64225 6.96087 7.01732 6.5858C7.39239 6.21072 7.9011 6.00001 8.43153 6.00001C8.96197 6.00001 9.47067 6.21072 9.84575 6.5858C10.2208 6.96087 10.4315 7.46958 10.4315 8.00001Z" fill="black"/>
</g>
<defs>
<clipPath id="clip0_785_1271">
<rect width="16" height="16" fill="white" transform="translate(0.431641)"/>
</clipPath>
</defs>
</svg>
