<svg width="17" height="17" viewBox="0 0 17 17" fill="none" xmlns="http://www.w3.org/2000/svg">
<path fill-rule="evenodd" clip-rule="evenodd" d="M8.50995 1.86388C7.49321 1.86425 6.49073 2.10312 5.58308 2.56131C4.67543 3.0195 3.88792 3.68423 3.28385 4.50207C2.67977 5.31991 2.27598 6.26806 2.10492 7.27031C1.93386 8.27256 2.00031 9.30096 2.29891 10.2729C2.59752 11.2448 3.11996 12.1331 3.82426 12.8664C4.52855 13.5997 5.39504 14.1576 6.35411 14.4951C7.31317 14.8327 8.33806 14.9406 9.3464 14.8101C10.3547 14.6797 11.3184 14.3145 12.16 13.7439L6.50995 6.94088V11.6139C6.50995 11.8128 6.43093 12.0036 6.29028 12.1442C6.14963 12.2849 5.95886 12.3639 5.75995 12.3639C5.56104 12.3639 5.37027 12.2849 5.22962 12.1442C5.08897 12.0036 5.00995 11.8128 5.00995 11.6139V4.86388C5.00977 4.70957 5.0572 4.55895 5.14577 4.43258C5.23433 4.30621 5.35972 4.21023 5.50484 4.15774C5.64996 4.10525 5.80773 4.0988 5.95665 4.13927C6.10556 4.17974 6.23837 4.26516 6.33695 4.38388L13.811 13.3839C13.937 13.5353 13.9984 13.7301 13.9819 13.9264C13.9654 14.1227 13.8724 14.3046 13.723 14.4329C12.2305 15.7134 10.3187 16.3993 8.35267 16.3597C6.38659 16.3201 4.50397 15.5578 3.06428 14.2183C1.62459 12.8788 0.728693 11.0559 0.54766 9.09783C0.366627 7.13971 0.91314 5.18351 2.08285 3.60275C3.25255 2.02199 4.9635 0.927428 6.88899 0.528062C8.81448 0.128696 10.8196 0.452507 12.5215 1.43767C14.2234 2.42282 15.5028 4.00031 16.1155 5.8689C16.7282 7.7375 16.6311 9.76629 15.843 11.5679C15.8034 11.6582 15.7465 11.7398 15.6754 11.8081C15.6044 11.8764 15.5205 11.93 15.4287 11.9659C15.337 12.0017 15.239 12.0192 15.1405 12.0172C15.0419 12.0153 14.9447 11.9939 14.8545 11.9544C14.7642 11.9149 14.6826 11.8579 14.6143 11.7869C14.546 11.7158 14.4924 11.632 14.4565 11.5402C14.4206 11.4484 14.4031 11.3504 14.4051 11.2519C14.4071 11.1534 14.4284 11.0562 14.468 10.9659C14.8273 10.1456 15.0119 9.25944 15.01 8.36388C15.01 6.63998 14.3251 4.98668 13.1061 3.76769C11.8872 2.5487 10.2339 1.86388 8.50995 1.86388ZM11.01 4.11388C11.2089 4.11388 11.3996 4.1929 11.5403 4.33355C11.6809 4.47421 11.76 4.66497 11.76 4.86388V7.86388C11.76 8.0628 11.6809 8.25356 11.5403 8.39421C11.3996 8.53487 11.2089 8.61388 11.01 8.61388C10.811 8.61388 10.6203 8.53487 10.4796 8.39421C10.339 8.25356 10.26 8.0628 10.26 7.86388V4.86388C10.26 4.66497 10.339 4.47421 10.4796 4.33355C10.6203 4.1929 10.811 4.11388 11.01 4.11388Z" fill="black"/>
</svg>
