<svg width="18" height="16" viewBox="0 0 18 16" fill="none" xmlns="http://www.w3.org/2000/svg">
<path fill-rule="evenodd" clip-rule="evenodd" d="M6.71655 5.94008L8.5404 7.76392L7.12961 9.17571L3.60164 5.64774C3.4146 5.46064 3.30952 5.20691 3.30952 4.94235C3.30952 4.67779 3.4146 4.42406 3.60164 4.23695L7.12961 0.708984L8.5404 2.12077L6.71655 3.94462H11.1205C12.7082 3.94462 14.2309 4.57532 15.3535 5.69799C16.4762 6.82065 17.1069 8.34331 17.1069 9.93099C17.1069 11.5187 16.4762 13.0413 15.3535 14.164C14.2309 15.2867 12.7082 15.9174 11.1205 15.9174H0.145508V13.9219H11.1205C12.179 13.9219 13.1941 13.5014 13.9425 12.753C14.691 12.0046 15.1114 10.9894 15.1114 9.93099C15.1114 8.87253 14.691 7.85743 13.9425 7.10899C13.1941 6.36055 12.179 5.94008 11.1205 5.94008H6.71655Z" fill="#202224"/>
</svg>
