<svg width="104" height="83" viewBox="0 0 104 83" fill="none" xmlns="http://www.w3.org/2000/svg">
<path d="M53.0493 0.0878906C55.7994 0.10334 62.6796 0.170288 69.9924 0.46383L72.5879 0.577126C79.947 0.922167 87.301 1.51955 90.9523 2.53407C95.8189 3.90393 99.6401 7.88993 100.933 12.9471C102.993 20.9809 103.25 36.6467 103.281 40.4422L103.286 41.225V42.121C103.25 45.9165 102.993 61.5875 100.933 69.6161C99.6246 74.6887 95.7983 78.6799 90.9523 80.0291C87.301 81.0437 79.947 81.641 72.5879 81.9861L69.9924 82.1045C62.6796 82.3929 55.7994 82.465 53.0493 82.4753L51.8391 82.4805H50.5259C44.7066 82.4444 20.3683 82.1818 12.6229 80.0291C7.76148 78.6593 3.93514 74.6733 2.64253 69.6161C0.582582 61.5823 0.325089 45.9165 0.294189 42.121V40.4422C0.325089 36.6467 0.582582 20.9757 2.64253 12.9471C3.95059 7.87448 7.77693 3.88334 12.6281 2.53922C20.3683 0.381432 44.7117 0.11879 50.5311 0.0878906H53.0493ZM41.4879 23.2623V59.3113L72.387 41.2868L41.4879 23.2623Z" fill="#198038"/>
</svg>
