<svg width="25" height="24" viewBox="0 0 25 24" fill="none" xmlns="http://www.w3.org/2000/svg">
<path d="M9.89844 22H15.8984C20.8984 22 22.8984 20 22.8984 15V9C22.8984 4 20.8984 2 15.8984 2H9.89844C4.89844 2 2.89844 4 2.89844 9V15C2.89844 20 4.89844 22 9.89844 22Z" stroke="white" stroke-width="1.5" stroke-linecap="round" stroke-linejoin="round"/>
<path d="M17.1786 13.6096C16.0486 14.7396 14.4286 15.0896 12.9986 14.6396L10.4086 17.2196C10.2286 17.4096 9.85863 17.5296 9.58863 17.4896L8.38863 17.3296C7.98863 17.2796 7.62864 16.8996 7.56864 16.5096L7.40863 15.3096C7.36863 15.0496 7.49864 14.6796 7.67864 14.4896L10.2586 11.9096C9.81864 10.4796 10.1586 8.85965 11.2886 7.72965C12.9086 6.10965 15.5486 6.10965 17.1786 7.72965C18.7986 9.33965 18.7986 11.9796 17.1786 13.6096Z" stroke="white" stroke-width="1.5" stroke-miterlimit="10" stroke-linecap="round" stroke-linejoin="round"/>
<path d="M11.3481 16.2799L10.498 15.4199" stroke="white" stroke-width="1.5" stroke-miterlimit="10" stroke-linecap="round" stroke-linejoin="round"/>
<path d="M14.293 10.7002H14.302" stroke="white" stroke-width="2" stroke-linecap="round" stroke-linejoin="round"/>
</svg>
