<svg width="23" height="23" viewBox="0 0 23 23" fill="none" xmlns="http://www.w3.org/2000/svg">
<path d="M8.5918 21.4971H14.5918C19.5918 21.4971 21.5918 19.4971 21.5918 14.4971V8.49707C21.5918 3.49707 19.5918 1.49707 14.5918 1.49707H8.5918C3.5918 1.49707 1.5918 3.49707 1.5918 8.49707V14.4971C1.5918 19.4971 3.5918 21.4971 8.5918 21.4971Z" stroke="#9197B3" stroke-width="1.5" stroke-linecap="round" stroke-linejoin="round"/>
<path d="M15.872 13.1067C14.742 14.2367 13.122 14.5867 11.692 14.1367L9.10199 16.7167C8.92199 16.9067 8.55199 17.0267 8.28199 16.9867L7.08199 16.8267C6.68199 16.7767 6.32199 16.3967 6.26199 16.0067L6.10199 14.8067C6.06199 14.5467 6.19199 14.1767 6.37199 13.9867L8.95199 11.4067C8.51199 9.97671 8.85199 8.35672 9.98198 7.22672C11.602 5.60672 14.242 5.60672 15.872 7.22672C17.492 8.83672 17.492 11.4767 15.872 13.1067Z" stroke="#9197B3" stroke-width="1.5" stroke-miterlimit="10" stroke-linecap="round" stroke-linejoin="round"/>
<path d="M10.0414 15.777L9.19141 14.917" stroke="#9197B3" stroke-width="1.5" stroke-miterlimit="10" stroke-linecap="round" stroke-linejoin="round"/>
<path d="M12.9863 10.1973H12.9953" stroke="#9197B3" stroke-width="2" stroke-linecap="round" stroke-linejoin="round"/>
</svg>
