<svg width="25" height="24" viewBox="0 0 25 24" fill="none" xmlns="http://www.w3.org/2000/svg">
<path d="M15.8984 22.75H9.89844C4.46844 22.75 2.14844 20.43 2.14844 15V9C2.14844 3.57 4.46844 1.25 9.89844 1.25H15.8984C21.3284 1.25 23.6484 3.57 23.6484 9V15C23.6484 20.43 21.3284 22.75 15.8984 22.75ZM9.89844 2.75C5.28844 2.75 3.64844 4.39 3.64844 9V15C3.64844 19.61 5.28844 21.25 9.89844 21.25H15.8984C20.5084 21.25 22.1484 19.61 22.1484 15V9C22.1484 4.39 20.5084 2.75 15.8984 2.75H9.89844Z" fill="#9197B3"/>
<path d="M12.899 13.0797C12.769 13.0797 12.639 13.0497 12.519 12.9797L7.21905 9.9197C6.85905 9.7097 6.73903 9.2497 6.94903 8.8997C7.15903 8.5397 7.61905 8.4197 7.96905 8.6297L12.889 11.4797L17.779 8.6497C18.139 8.4397 18.599 8.5697 18.799 8.9197C18.999 9.2697 18.879 9.7397 18.529 9.9397L13.269 12.9797C13.159 13.0397 13.029 13.0797 12.899 13.0797Z" fill="#9197B3"/>
<path d="M12.8984 18.5201C12.4884 18.5201 12.1484 18.1801 12.1484 17.7701V12.3301C12.1484 11.9201 12.4884 11.5801 12.8984 11.5801C13.3084 11.5801 13.6484 11.9201 13.6484 12.3301V17.7701C13.6484 18.1801 13.3084 18.5201 12.8984 18.5201Z" fill="#9197B3"/>
<path d="M12.8986 18.7498C12.3186 18.7498 11.7487 18.6198 11.2887 18.3698L8.08869 16.5898C7.12869 16.0598 6.38867 14.7898 6.38867 13.6898V10.2998C6.38867 9.20981 7.13869 7.9398 8.08869 7.3998L11.2887 5.6198C12.2087 5.1098 13.5886 5.1098 14.5086 5.6198L17.7086 7.3998C18.6686 7.9298 19.4087 9.19981 19.4087 10.2998V13.6898C19.4087 14.7798 18.6586 16.0498 17.7086 16.5898L14.5086 18.3698C14.0486 18.6298 13.4786 18.7498 12.8986 18.7498ZM12.8986 6.7498C12.5686 6.7498 12.2486 6.8098 12.0186 6.9398L8.8187 8.7198C8.3287 8.9898 7.88867 9.7498 7.88867 10.2998V13.6898C7.88867 14.2498 8.3287 14.9998 8.8187 15.2698L12.0186 17.0498C12.4786 17.3098 13.3186 17.3098 13.7786 17.0498L16.9786 15.2698C17.4686 14.9998 17.9087 14.2398 17.9087 13.6898V10.2998C17.9087 9.73981 17.4686 8.9898 16.9786 8.7198L13.7786 6.9398C13.5486 6.8098 13.2286 6.7498 12.8986 6.7498Z" fill="#9197B3"/>
</svg>
