<svg width="20" height="21" viewBox="0 0 20 21" fill="none" xmlns="http://www.w3.org/2000/svg">
<path d="M6.5 1H11.5C11.8978 1 12.2794 1.15804 12.5607 1.43934C12.842 1.72064 13 2.10218 13 2.5C13 3.42826 12.6313 4.3185 11.9749 4.97487C11.3185 5.63125 10.4283 6 9.5 6H8.5C7.57174 6 6.6815 5.63125 6.02513 4.97487C5.36875 4.3185 5 3.42826 5 2.5C5 2.10218 5.15804 1.72064 5.43934 1.43934C5.72064 1.15804 6.10218 1 6.5 1Z" stroke="white" stroke-width="1.5" stroke-linecap="round" stroke-linejoin="round"/>
<path d="M8.5 19.0002H5C3.93913 19.0002 2.92172 18.5788 2.17157 17.8286C1.42143 17.0785 1 16.0611 1 15.0002V14.0002C0.999756 12.3244 1.52574 10.6909 2.50373 9.33014C3.48172 7.96937 4.86233 6.95007 6.45072 6.41607C8.03912 5.88207 9.7551 5.86035 11.3565 6.35397C12.9579 6.84758 14.3639 7.83161 15.376 9.16719" stroke="white" stroke-width="1.5" stroke-linecap="round" stroke-linejoin="round"/>
<path d="M15.0001 20.0004L18.3501 16.7164C18.5556 16.5171 18.719 16.2786 18.8307 16.015C18.9425 15.7515 19.0003 15.4682 19.0007 15.182C19.0012 14.8957 18.9443 14.6123 18.8334 14.3484C18.7225 14.0844 18.5599 13.8454 18.3551 13.6454C17.9375 13.2363 17.3765 13.0066 16.7918 13.0055C16.2072 13.0044 15.6453 13.2319 15.2261 13.6394L15.0021 13.8594L14.7791 13.6394C14.3615 13.2306 13.8007 13.0011 13.2163 13C12.6319 12.9989 12.0703 13.2262 11.6511 13.6334C11.4456 13.8327 11.2821 14.0711 11.1703 14.3346C11.0585 14.5981 11.0006 14.8814 11 15.1676C10.9994 15.4539 11.0562 15.7374 11.167 16.0013C11.2778 16.2653 11.4404 16.5043 11.6451 16.7044L15.0001 20.0004Z" stroke="white" stroke-width="1.5" stroke-linecap="round" stroke-linejoin="round"/>
</svg>
