<svg width="25" height="24" viewBox="0 0 25 24" fill="none" xmlns="http://www.w3.org/2000/svg">
<path d="M15.899 22.7498H9.89907C8.57907 22.7498 7.47907 22.6198 6.54907 22.3398C6.20907 22.2398 5.98907 21.9098 6.00907 21.5598C6.25907 18.5698 9.28907 16.2197 12.899 16.2197C16.509 16.2197 19.529 18.5598 19.789 21.5598C19.819 21.9198 19.599 22.2398 19.249 22.3398C18.319 22.6198 17.219 22.7498 15.899 22.7498ZM7.61907 21.0598C8.27907 21.1898 9.02907 21.2498 9.89907 21.2498H15.899C16.769 21.2498 17.519 21.1898 18.179 21.0598C17.649 19.1398 15.459 17.7197 12.899 17.7197C10.3391 17.7197 8.14907 19.1398 7.61907 21.0598Z" fill="#9197B3"/>
<path d="M15.8984 2H9.89844C4.89844 2 2.89844 4 2.89844 9V15C2.89844 18.78 4.03844 20.85 6.75844 21.62C6.97844 19.02 9.64844 16.97 12.8984 16.97C16.1484 16.97 18.8184 19.02 19.0384 21.62C21.7584 20.85 22.8984 18.78 22.8984 15V9C22.8984 4 20.8984 2 15.8984 2ZM12.8984 14.17C10.9184 14.17 9.31844 12.56 9.31844 10.58C9.31844 8.60002 10.9184 7 12.8984 7C14.8784 7 16.4784 8.60002 16.4784 10.58C16.4784 12.56 14.8784 14.17 12.8984 14.17Z" stroke="#9197B3" stroke-width="1.5" stroke-linecap="round" stroke-linejoin="round"/>
<path d="M12.8983 14.92C10.5084 14.92 8.56836 12.97 8.56836 10.58C8.56836 8.19002 10.5084 6.25 12.8983 6.25C15.2883 6.25 17.2283 8.19002 17.2283 10.58C17.2283 12.97 15.2883 14.92 12.8983 14.92ZM12.8983 7.75C11.3383 7.75 10.0684 9.02002 10.0684 10.58C10.0684 12.15 11.3383 13.42 12.8983 13.42C14.4583 13.42 15.7283 12.15 15.7283 10.58C15.7283 9.02002 14.4583 7.75 12.8983 7.75Z" fill="#9197B3"/>
</svg>
