<svg width="22" height="21" viewBox="0 0 22 21" fill="none" xmlns="http://www.w3.org/2000/svg">
<path d="M9.7516 14.3604V16.3904C9.7516 18.1104 8.15158 19.5004 6.18158 19.5004C4.21158 19.5004 2.60156 18.1104 2.60156 16.3904V14.3604C2.60156 16.0804 4.20158 17.3004 6.18158 17.3004C8.15158 17.3004 9.7516 16.0704 9.7516 14.3604Z" stroke="white" stroke-width="1.5" stroke-linecap="round" stroke-linejoin="round"/>
<path d="M9.7516 14.3604V16.3904C9.7516 18.1104 8.15158 19.5004 6.18158 19.5004C4.21158 19.5004 2.60156 18.1104 2.60156 16.3904V14.3604C2.60156 16.0804 4.20158 17.3004 6.18158 17.3004C8.15158 17.3004 9.7516 16.0704 9.7516 14.3604Z" stroke="white" stroke-width="1.5" stroke-linecap="round" stroke-linejoin="round"/>
<path d="M9.75034 11.6098C9.75034 12.1098 9.61034 12.5698 9.37034 12.9698C8.7803 13.9398 7.57028 14.5498 6.17028 14.5498C4.77028 14.5498 3.56027 13.9298 2.97027 12.9698C2.73027 12.5698 2.59033 12.1098 2.59033 11.6098C2.59033 10.7498 2.99031 9.97977 3.63031 9.41977C4.28031 8.84977 5.17027 8.50977 6.16027 8.50977C7.15027 8.50977 8.0403 8.85977 8.6903 9.41977C9.35034 9.96977 9.75034 10.7498 9.75034 11.6098Z" stroke="white" stroke-width="1.5" stroke-linecap="round" stroke-linejoin="round"/>
<path d="M9.75034 11.6098C9.75034 12.1098 9.61034 12.5698 9.37034 12.9698C8.7803 13.9398 7.57028 14.5498 6.17028 14.5498C4.77028 14.5498 3.56027 13.9298 2.97027 12.9698C2.73027 12.5698 2.59033 12.1098 2.59033 11.6098C2.59033 10.7498 2.99031 9.97977 3.63031 9.41977C4.28031 8.84977 5.17027 8.50977 6.16027 8.50977C7.15027 8.50977 8.0403 8.85977 8.6903 9.41977C9.35034 9.96977 9.75034 10.7498 9.75034 11.6098Z" stroke="white" stroke-width="1.5" stroke-linecap="round" stroke-linejoin="round"/>
<path d="M9.7516 11.61V14.36C9.7516 16.08 8.15158 17.3 6.18158 17.3C4.21158 17.3 2.60156 16.07 2.60156 14.36V11.61C2.60156 9.89 4.20158 8.5 6.18158 8.5C7.17158 8.5 8.06161 8.85 8.71161 9.41C9.3516 9.97 9.7516 10.75 9.7516 11.61Z" stroke="white" stroke-width="1.5" stroke-linecap="round" stroke-linejoin="round"/>
<path d="M9.7516 11.61V14.36C9.7516 16.08 8.15158 17.3 6.18158 17.3C4.21158 17.3 2.60156 16.07 2.60156 14.36V11.61C2.60156 9.89 4.20158 8.5 6.18158 8.5C7.17158 8.5 8.06161 8.85 8.71161 9.41C9.3516 9.97 9.7516 10.75 9.7516 11.61Z" stroke="white" stroke-width="1.5" stroke-linecap="round" stroke-linejoin="round"/>
<path d="M21.0002 8.47015V10.5302C21.0002 11.0802 20.5602 11.5301 20.0002 11.5501H18.0401C16.9601 11.5501 15.9702 10.7601 15.8802 9.68015C15.8202 9.05015 16.0601 8.46015 16.4801 8.05015C16.8501 7.67015 17.3602 7.4502 17.9202 7.4502H20.0002C20.5602 7.4702 21.0002 7.92015 21.0002 8.47015Z" stroke="white" stroke-width="1.5" stroke-linecap="round" stroke-linejoin="round"/>
<path d="M21.0002 8.47015V10.5302C21.0002 11.0802 20.5602 11.5301 20.0002 11.5501H18.0401C16.9601 11.5501 15.9702 10.7601 15.8802 9.68015C15.8202 9.05015 16.0601 8.46015 16.4801 8.05015C16.8501 7.67015 17.3602 7.4502 17.9202 7.4502H20.0002C20.5602 7.4702 21.0002 7.92015 21.0002 8.47015Z" stroke="white" stroke-width="1.5" stroke-linecap="round" stroke-linejoin="round"/>
<path d="M1 8V6C1 3.28 2.64 1.38 5.19 1.06C5.45 1.02 5.72 1 6 1H15C15.26 1 15.51 1.00999 15.75 1.04999C18.33 1.34999 20 3.26 20 6V7.45001H17.92C17.36 7.45001 16.85 7.67 16.48 8.05C16.06 8.46 15.82 9.05 15.88 9.68C15.97 10.76 16.96 11.55 18.04 11.55H20V13C20 16 18 18 15 18H12.5" stroke="white" stroke-width="1.5" stroke-linecap="round" stroke-linejoin="round"/>
<path d="M1 8V6C1 3.28 2.64 1.38 5.19 1.06C5.45 1.02 5.72 1 6 1H15C15.26 1 15.51 1.00999 15.75 1.04999C18.33 1.34999 20 3.26 20 6V7.45001H17.92C17.36 7.45001 16.85 7.67 16.48 8.05C16.06 8.46 15.82 9.05 15.88 9.68C15.97 10.76 16.96 11.55 18.04 11.55H20V13C20 16 18 18 15 18H12.5" stroke="white" stroke-width="1.5" stroke-linecap="round" stroke-linejoin="round"/>
</svg>
