<svg width="22" height="22" viewBox="0 0 22 22" fill="none" xmlns="http://www.w3.org/2000/svg">
<path d="M13 1.2C12.3533 1.068 11.6867 1.00133 11 1C5.477 1 1 5.472 1 10.989C1 16.506 5.477 20.978 11 20.978C16.523 20.978 21 16.506 21 10.989C20.9987 10.3043 20.932 9.63833 20.8 8.991" stroke="#9197B3" stroke-width="1.5" stroke-linecap="round"/>
<path d="M11 7.99119C9.895 7.99119 9 8.66219 9 9.49019C9 10.3172 9.895 10.9882 11 10.9882C12.105 10.9882 13 11.6582 13 12.4862C13 13.3142 12.105 13.9852 11 13.9852M11 7.99119C11.87 7.99119 12.612 8.40819 12.886 8.99119M11 7.99119V6.99219M11 13.9852C10.13 13.9852 9.388 13.5682 9.114 12.9852M11 13.9852V14.9842" stroke="#9197B3" stroke-width="1.5" stroke-linecap="round"/>
</svg>
