<svg width="25" height="24" viewBox="0 0 25 24" fill="none" xmlns="http://www.w3.org/2000/svg">
<path d="M12.8984 22.7503C12.2684 22.7503 11.6784 22.5104 11.2384 22.0604L9.71845 20.5404C9.59845 20.4204 9.27844 20.2904 9.11844 20.2904H6.95844C5.65844 20.2904 4.60843 19.2403 4.60843 17.9403V15.7804C4.60843 15.6204 4.47843 15.3004 4.35843 15.1804L2.83844 13.6604C2.39844 13.2204 2.14844 12.6303 2.14844 12.0003C2.14844 11.3703 2.38844 10.7803 2.83844 10.3403L4.35843 8.82028C4.47843 8.70028 4.60843 8.3803 4.60843 8.2203V6.06039C4.60843 4.76039 5.65844 3.71029 6.95844 3.71029H9.11844C9.27844 3.71029 9.59845 3.58029 9.71845 3.46029L11.2384 1.94027C12.1184 1.06027 13.6784 1.06027 14.5584 1.94027L16.0784 3.46029C16.1984 3.58029 16.5184 3.71029 16.6784 3.71029H18.8384C20.1384 3.71029 21.1884 4.76039 21.1884 6.06039V8.2203C21.1884 8.3803 21.3184 8.70028 21.4384 8.82028L22.9584 10.3403C23.3984 10.7803 23.6484 11.3703 23.6484 12.0003C23.6484 12.6303 23.4084 13.2204 22.9584 13.6604L21.4384 15.1804C21.3184 15.3004 21.1884 15.6204 21.1884 15.7804V17.9403C21.1884 19.2403 20.1384 20.2904 18.8384 20.2904H16.6784C16.5184 20.2904 16.1984 20.4204 16.0784 20.5404L14.5584 22.0604C14.1184 22.5104 13.5284 22.7503 12.8984 22.7503ZM5.41843 14.1203C5.81843 14.5203 6.10843 15.2204 6.10843 15.7804V17.9403C6.10843 18.4103 6.48844 18.7904 6.95844 18.7904H9.11844C9.67844 18.7904 10.3784 19.0803 10.7784 19.4803L12.2984 21.0003C12.6184 21.3203 13.1784 21.3203 13.4984 21.0003L15.0184 19.4803C15.4184 19.0803 16.1184 18.7904 16.6784 18.7904H18.8384C19.3084 18.7904 19.6884 18.4103 19.6884 17.9403V15.7804C19.6884 15.2204 19.9784 14.5203 20.3784 14.1203L21.8984 12.6003C22.0584 12.4403 22.1484 12.2303 22.1484 12.0003C22.1484 11.7703 22.0584 11.5604 21.8984 11.4004L20.3784 9.88034C19.9784 9.48034 19.6884 8.7803 19.6884 8.2203V6.06039C19.6884 5.59039 19.3084 5.21029 18.8384 5.21029H16.6784C16.1184 5.21029 15.4184 4.92035 15.0184 4.52035L13.4984 3.00033C13.1784 2.68033 12.6184 2.68033 12.2984 3.00033L10.7784 4.52035C10.3784 4.92035 9.67844 5.21029 9.11844 5.21029H6.95844C6.48844 5.21029 6.10843 5.59039 6.10843 6.06039V8.2203C6.10843 8.7803 5.81843 9.48034 5.41843 9.88034L3.89844 11.4004C3.73844 11.5604 3.64844 11.7703 3.64844 12.0003C3.64844 12.2303 3.73844 12.4403 3.89844 12.6003L5.41843 14.1203Z" fill="#9197B3"/>
<path d="M15.8987 16C15.3387 16 14.8887 15.55 14.8887 15C14.8887 14.45 15.3387 14 15.8887 14C16.4387 14 16.8887 14.45 16.8887 15C16.8887 15.55 16.4487 16 15.8987 16Z" fill="#9197B3"/>
<path d="M9.90845 10C9.34845 10 8.89844 9.55 8.89844 9C8.89844 8.45 9.34844 8 9.89844 8C10.4484 8 10.8984 8.45 10.8984 9C10.8984 9.55 10.4584 10 9.90845 10Z" fill="#9197B3"/>
<path d="M9.89789 15.7495C9.70789 15.7495 9.51789 15.6795 9.36789 15.5295C9.07789 15.2395 9.07789 14.7595 9.36789 14.4695L15.3679 8.46945C15.6579 8.17945 16.1379 8.17945 16.4279 8.46945C16.7179 8.75945 16.7179 9.23951 16.4279 9.52951L10.4279 15.5295C10.2779 15.6795 10.0879 15.7495 9.89789 15.7495Z" fill="#9197B3"/>
</svg>
