<svg width="25" height="24" viewBox="0 0 25 24" fill="none" xmlns="http://www.w3.org/2000/svg">
<path d="M11.65 16.8604V18.8904C11.65 20.6104 10.05 22.0004 8.08002 22.0004C6.11002 22.0004 4.5 20.6104 4.5 18.8904V16.8604C4.5 18.5804 6.10002 19.8004 8.08002 19.8004C10.05 19.8004 11.65 18.5704 11.65 16.8604Z" stroke="#9197B3" stroke-width="1.5" stroke-linecap="round" stroke-linejoin="round"/>
<path d="M11.6483 14.1098C11.6483 14.6098 11.5083 15.0698 11.2683 15.4698C10.6783 16.4398 9.46823 17.0498 8.06823 17.0498C6.66823 17.0498 5.45822 16.4298 4.86822 15.4698C4.62822 15.0698 4.48828 14.6098 4.48828 14.1098C4.48828 13.2498 4.88826 12.4798 5.52826 11.9198C6.17826 11.3498 7.06822 11.0098 8.05822 11.0098C9.04822 11.0098 9.93825 11.3598 10.5883 11.9198C11.2483 12.4698 11.6483 13.2498 11.6483 14.1098Z" stroke="#9197B3" stroke-width="1.5" stroke-linecap="round" stroke-linejoin="round"/>
<path d="M11.65 14.11V16.86C11.65 18.58 10.05 19.8 8.08002 19.8C6.11002 19.8 4.5 18.57 4.5 16.86V14.11C4.5 12.39 6.10002 11 8.08002 11C9.07002 11 9.96005 11.35 10.61 11.91C11.25 12.47 11.65 13.25 11.65 14.11Z" stroke="#9197B3" stroke-width="1.5" stroke-linecap="round" stroke-linejoin="round"/>
<path d="M22.8987 10.9701V13.0302C22.8987 13.5802 22.4587 14.0301 21.8987 14.0501H19.9386C18.8586 14.0501 17.8687 13.2601 17.7787 12.1801C17.7187 11.5501 17.9586 10.9601 18.3786 10.5501C18.7486 10.1701 19.2587 9.9502 19.8187 9.9502H21.8987C22.4587 9.9702 22.8987 10.4201 22.8987 10.9701Z" stroke="#9197B3" stroke-width="1.5" stroke-linecap="round" stroke-linejoin="round"/>
<path d="M2.89844 10.5V8.5C2.89844 5.78 4.53844 3.88 7.08844 3.56C7.34844 3.52 7.61844 3.5 7.89844 3.5H16.8984C17.1584 3.5 17.4084 3.50999 17.6484 3.54999C20.2284 3.84999 21.8984 5.76 21.8984 8.5V9.95001H19.8184C19.2584 9.95001 18.7484 10.17 18.3784 10.55C17.9584 10.96 17.7184 11.55 17.7784 12.18C17.8684 13.26 18.8584 14.05 19.9384 14.05H21.8984V15.5C21.8984 18.5 19.8984 20.5 16.8984 20.5H14.3984" stroke="#9197B3" stroke-width="1.5" stroke-linecap="round" stroke-linejoin="round"/>
</svg>
