<svg width="21" height="21" viewBox="0 0 21 21" fill="none" xmlns="http://www.w3.org/2000/svg">
<path fill-rule="evenodd" clip-rule="evenodd" d="M10.7114 1.5125H9.58544L8.94044 4.0905L8.29344 4.2905C7.91642 4.40667 7.55115 4.55801 7.20244 4.7425L6.60344 5.0595L4.32344 3.6915L3.52744 4.4885L4.89544 6.7685L4.57844 7.3665C4.3936 7.71518 4.24193 8.08045 4.12544 8.4575L3.92644 9.1045L1.34844 9.7495V10.8755L3.92644 11.5205L4.12644 12.1675C4.24177 12.5462 4.39244 12.9098 4.57844 13.2585L4.89544 13.8575L3.52744 16.1375L4.32444 16.9335L6.60444 15.5655L7.20244 15.8825C7.5511 16.0678 7.91477 16.2188 8.29344 16.3355L8.94044 16.5345L9.58544 19.1125H10.7114L11.3564 16.5345L12.0034 16.3345C12.3805 16.2183 12.7457 16.067 13.0944 15.8825L13.6934 15.5655L15.9734 16.9335L16.7694 16.1365L15.4014 13.8565L15.7184 13.2585C15.9038 12.9098 16.0548 12.5462 16.1714 12.1675L16.3704 11.5205L18.9484 10.8755V9.7495L16.3704 9.1045L16.1704 8.4575C16.0543 8.08048 15.9029 7.71521 15.7184 7.3665L15.4014 6.7675L16.7694 4.4875L15.9724 3.6915L13.6924 5.0595L13.0944 4.7425C12.7458 4.55766 12.3805 4.406 12.0034 4.2895L11.3564 4.0905L10.7114 1.5125ZM13.6564 3.6825L15.4894 2.5825C15.6806 2.46786 15.9045 2.42036 16.1257 2.44754C16.3469 2.47471 16.5527 2.57501 16.7104 2.7325L17.7284 3.7505C17.8859 3.9082 17.9862 4.11399 18.0134 4.33521C18.0406 4.55642 17.9931 4.78037 17.8784 4.9715L16.7784 6.8045C16.9984 7.21783 17.1784 7.65117 17.3184 8.1045L19.3914 8.6235C19.6077 8.67767 19.7996 8.80255 19.9368 8.97829C20.0739 9.15404 20.1484 9.37057 20.1484 9.5935V11.0315C20.1484 11.2544 20.0739 11.471 19.9368 11.6467C19.7996 11.8225 19.6077 11.9473 19.3914 12.0015L17.3184 12.5205C17.1784 12.9738 16.9984 13.4072 16.7784 13.8205L17.8784 15.6535C17.9931 15.8446 18.0406 16.0686 18.0134 16.2898C17.9862 16.511 17.8859 16.7168 17.7284 16.8745L16.7104 17.8925C16.5527 18.05 16.3469 18.1503 16.1257 18.1775C15.9045 18.2046 15.6806 18.1571 15.4894 18.0425L13.6564 16.9425C13.2431 17.1625 12.8098 17.3425 12.3564 17.4825L11.8374 19.5555C11.7833 19.7717 11.6584 19.9637 11.4826 20.1008C11.3069 20.238 11.0904 20.3125 10.8674 20.3125H9.42944C9.20651 20.3125 8.98997 20.238 8.81423 20.1008C8.63848 19.9637 8.51361 19.7717 8.45944 19.5555L7.94044 17.4825C7.49113 17.3437 7.05588 17.1629 6.64044 16.9425L4.80744 18.0425C4.61631 18.1571 4.39236 18.2046 4.17114 18.1775C3.94993 18.1503 3.74414 18.05 3.58644 17.8925L2.56844 16.8745C2.41095 16.7168 2.31065 16.511 2.28347 16.2898C2.2563 16.0686 2.3038 15.8446 2.41844 15.6535L3.51844 13.8205C3.29808 13.4051 3.11728 12.9698 2.97844 12.5205L0.905437 12.0015C0.689357 11.9474 0.497536 11.8226 0.3604 11.6471C0.223264 11.4716 0.148666 11.2553 0.148438 11.0325V9.5945C0.148443 9.37157 0.22294 9.15504 0.360093 8.97929C0.497246 8.80355 0.689191 8.67867 0.905437 8.6245L2.97844 8.1055C3.11844 7.65217 3.29844 7.21883 3.51844 6.8055L2.41844 4.9725C2.3038 4.78137 2.2563 4.55742 2.28347 4.33621C2.31065 4.11499 2.41095 3.9092 2.56844 3.7515L3.58644 2.7325C3.74414 2.57501 3.94993 2.47471 4.17114 2.44754C4.39236 2.42036 4.61631 2.46786 4.80744 2.5825L6.64044 3.6825C7.05377 3.4625 7.4871 3.2825 7.94044 3.1425L8.45944 1.0695C8.51357 0.853419 8.6383 0.661598 8.81384 0.524463C8.98938 0.387327 9.20568 0.312729 9.42844 0.3125H10.8664C11.0894 0.312506 11.3059 0.387002 11.4816 0.524155C11.6574 0.661309 11.7823 0.853253 11.8364 1.0695L12.3554 3.1425C12.8088 3.2825 13.2421 3.4625 13.6554 3.6825H13.6564ZM10.1484 13.1125C10.891 13.1125 11.6032 12.8175 12.1283 12.2924C12.6534 11.7673 12.9484 11.0551 12.9484 10.3125C12.9484 9.56989 12.6534 8.8577 12.1283 8.3326C11.6032 7.8075 10.891 7.5125 10.1484 7.5125C9.40583 7.5125 8.69364 7.8075 8.16854 8.3326C7.64344 8.8577 7.34844 9.56989 7.34844 10.3125C7.34844 11.0551 7.64344 11.7673 8.16854 12.2924C8.69364 12.8175 9.40583 13.1125 10.1484 13.1125ZM10.1484 14.3125C9.08757 14.3125 8.07016 13.8911 7.32001 13.1409C6.56986 12.3908 6.14844 11.3734 6.14844 10.3125C6.14844 9.25163 6.56986 8.23422 7.32001 7.48407C8.07016 6.73393 9.08757 6.3125 10.1484 6.3125C11.2093 6.3125 12.2267 6.73393 12.9769 7.48407C13.727 8.23422 14.1484 9.25163 14.1484 10.3125C14.1484 11.3734 13.727 12.3908 12.9769 13.1409C12.2267 13.8911 11.2093 14.3125 10.1484 14.3125Z" fill="#9197B3"/>
</svg>
